SplineFontDB: 1.0
FontName: Inconsolata
FullName: Inconsolata
FamilyName: Inconsolata
Weight: Medium
Copyright: Created by Raph Levien using his own tools and FontForge. Copyright 2006 Raph Levien. Released under the SIL Open Font License, http://scripts.sil.org/OFL.
Comments: 2005-8-26: Created.
Version: 001.006
ItalicAngle: 0
UnderlinePosition: -100
UnderlineWidth: 50
Ascent: 820
Descent: 180
NeedsXUIDChange: 1
XUID: [1021 77 1780377399 11264577]
FSType: 8
OS2Version: 0
OS2_WeightWidthSlopeOnly: 0
OS2_UseTypoMetrics: 0
CreationTime: 1161020814
ModificationTime: 1164611673
PfmFamily: 17
TTFWeight: 500
TTFWidth: 5
LineGap: 200
VLineGap: 0
Panose: 2 11 6 9 3 0 3 0 0 0
OS2TypoAscent: 0
OS2TypoAOffset: 1
OS2TypoDescent: 0
OS2TypoDOffset: 1
OS2TypoLinegap: 0
OS2WinAscent: 0
OS2WinAOffset: 1
OS2WinDescent: 0
OS2WinDOffset: 1
HheadAscent: 0
HheadAOffset: 1
HheadDescent: 0
HheadDOffset: 1
OS2Vendor: 'PfEd'
ScriptLang: 1
 1 latn 1 dflt 
LangName: 1033 
Encoding: Custom
UnicodeInterp: none
NameList: Adobe Glyph List
DisplaySize: -36
AntiAlias: 1
FitToEm: 1
WinInfo: 144 16 14
Grid
168 917 m 25
 406.5 917 l 25
EndSplineSet
TeXData: 1 0 0 629145 314572 209715 554697 1048576 209715 783286 444596 497025 792723 393216 433062 380633 303038 157286 324010 404750 52429 2506097 1059062 262144
BeginChars: 358 292
StartChar: a
Encoding: 97 97 0
Width: 600
Flags: HMW
TeX: 97 0 0 0
Fore
115 467 m 0
 164.456 518.083 232.512 541.055 303.925 541.055 c 0
 386.091 541.055 453.267 510.995 488.008 453.097 c 0
 512.442 412.375 514 371.39 514 328 c 0
 514 0 l 0
 435 0 l 0
 435 56 l 0
 433.739 55.0035 l 0
 376.374 9.87257 310.19 -13.0001 245.764 -13.0001 c 0
 134.243 -13.0001 66.7963 59.4162 66.7963 136.983 c 0
 66.7963 195.167 104.074 256.313 185.772 287.195 c 0
 248.197 310.792 324.426 312.004 400.967 312.004 c 0
 417 312 l 0
 417 312 l 0
 434 312 l 0
 434 331 l 0
 434 331 l 0
 434 331.936 l 0
 434 364.391 434.504 406.227 404.799 437.755 c 0
 376.711 467.566 337.084 473.031 307.869 473.031 c 0
 258.955 473.031 199.358 459.393 156 414 c 0
 115 467 l 0
437 248 m 0
 418 248 l 0
 418 248 l 0
 395.597 248 373.19 248.486 350.786 248.486 c 0
 284.387 248.486 253.695 243.618 230.725 236.298 c 0
 175.413 218.669 150.668 179.404 150.668 142.456 c 0
 150.668 95.137 191.681 50.8142 261.864 50.8142 c 0
 331.199 50.8142 381.823 92.8437 401.058 113.287 c 0
 436.77 151.242 437 185.578 437 213 c 0
 437 248 l 0
EndSplineSet
EndChar
StartChar: c
Encoding: 99 99 1
Width: 600
Flags: HMW
TeX: 99 0 0 0
Fore
539 442 m 4
 480 373 l 4
 470.825 379.924 477.126 390.809 472.703 399.753 c 4
 469.634 405.96 426.164 469.074 335.78 469.074 c 4
 238.504 469.074 160.969 393.768 160.969 273.126 c 4
 160.969 149.42 239.6 62.9789 342.756 62.9789 c 4
 395.811 62.9789 447.209 86.4429 483 127 c 4
 531 71 l 4
 480.516 16.5812 409.687 -13.0011 335.781 -13.0011 c 4
 186.048 -13.0011 74.9996 104.892 74.9996 264.509 c 4
 74.9996 423.38 185.476 540.028 341.051 540.028 c 4
 426.18 540.028 497.315 503.103 539 442 c 4
EndSplineSet
EndChar
StartChar: m
Encoding: 109 109 2
Width: 600
Flags: HMW
TeX: 109 0 0 0
Fore
54 0 m 4
 54 529 l 4
 131 529 l 4
 130 477 l 4
 154.337 514.017 194.92 542.056 238.342 542.056 c 4
 285.783 542.056 323.7 508.722 332 465 c 4
 352.564 511.823 399.84 542.002 450.616 542.002 c 4
 480.384 542.002 513.122 530.583 533.413 499.967 c 4
 553.205 470.105 555.042 433.582 555.042 394.704 c 4
 555 376 l 4
 555 -1 l 4
 476 -1 l 4
 476 375 l 4
 476 384.028 476.309 393.056 476.309 402.084 c 4
 476.309 427.526 473.499 445.942 464.335 460.051 c 4
 455.985 472.907 442.534 481.204 426.805 481.204 c 4
 394.659 481.204 374.014 448.262 365.249 433.479 c 4
 345.703 400.513 343 377.821 343 350 c 4
 343 0 l 4
 265 0 l 4
 265 368 l 4
 265 375.452 265.164 382.905 265.164 390.357 c 4
 265.164 406.967 264.473 430.129 255.472 448.422 c 4
 245.163 469.375 227.223 478.297 210.74 478.297 c 4
 189.54 478.297 165.885 464.471 146.732 428.907 c 4
 131.729 401.049 130 377.928 130 353 c 4
 130 0 l 4
 54 0 l 4
EndSplineSet
EndChar
StartChar: s
Encoding: 115 115 3
Width: 600
Flags: HMW
TeX: 115 0 0 0
Fore
511 459 m 4
 462 386 l 4
 459.954 386.487 455.921 388.387 455.967 395.318 c 4
 455.994 399.389 456.754 402.17 453.49 406.383 c 4
 433.342 432.386 382.005 479.074 306.539 479.074 c 4
 246.687 479.074 195 449.386 195 406.786 c 4
 195 389 204.202 363.327 247.446 342.429 c 4
 296.926 318.517 382.175 306.563 441.996 272.983 c 4
 504.635 237.822 519.699 189.926 519.699 153.285 c 4
 519.699 73.3785 444.137 -12.0003 299.462 -12.0003 c 4
 219.049 -12.0003 138.142 14.2177 76 72 c 4
 124 155 l 4
 129.709 152.331 129.203 145.694 129.13 144.104 c 4
 128.917 139.47 128.401 136.208 132.349 131.72 c 4
 149.099 112.681 207.222 58 297.964 58 c 4
 373.592 58 434.068 92.1676 434.068 141.757 c 4
 434.068 160.887 424.919 188.765 381.245 209.208 c 4
 342.194 227.486 283.74 241.548 238.968 257.732 c 4
 210.234 268.119 109.997 301.799 109.997 394.231 c 4
 109.997 473.3 190.548 542.004 313.496 542.004 c 4
 391.8 542.004 462.083 512.905 511 459 c 4
EndSplineSet
EndChar
StartChar: I
Encoding: 73 73 4
Width: 600
Flags: HMW
TeX: 73 0 0 0
Fore
112 722 m 0
 470 722 l 0
 470 654 l 0
 327 654 l 0
 327 66 l 0
 477 66 l 0
 477 -1 l 0
 104 -1 l 0
 104 67 l 0
 246 67 l 0
 246 654 l 0
 112 654 l 0
 112 722 l 0
EndSplineSet
EndChar
StartChar: o
Encoding: 111 111 5
Width: 600
Flags: HMW
TeX: 111 0 0 0
Fore
543.113 262.304 m 4
 543.113 86.8043 430.326 -14 304.969 -14 c 4
 171.548 -14 56.8677 99.5323 56.8677 260.578 c 4
 56.8677 424.14 172.53 541.005 307.44 541.005 c 4
 427.751 541.005 543.113 445.084 543.113 262.304 c 4
301.758 470.103 m 4
 220.795 470.103 144.985 397.575 144.985 267.806 c 4
 144.985 137.225 221.249 57.9927 305.614 57.9927 c 4
 382.884 57.9927 459.167 125.6 459.167 258.844 c 4
 459.167 404.202 378.128 470.103 301.758 470.103 c 4
EndSplineSet
EndChar
StartChar: n
Encoding: 110 110 6
Width: 600
Flags: HMW
TeX: 110 0 0 0
Fore
89 0 m 4
 89 529 l 4
 174 529 l 4
 174 436 l 4
 212.871 495.002 278.12 542.003 349.957 542.003 c 4
 410.281 542.003 464.544 508.129 490.899 448.568 c 4
 509.729 406.014 510 362.334 510 321 c 4
 510 321 l 4
 510 0 l 4
 428 0 l 4
 428 319 l 4
 428 356.393 427.762 401.823 399.11 436.061 c 4
 380.097 458.781 353.908 469.58 327.341 469.58 c 4
 271.362 469.58 220.49 422.787 200.308 395.893 c 4
 178.287 366.55 174 340.651 174 305 c 4
 174 0 l 4
 89 0 l 4
EndSplineSet
EndChar
StartChar: l
Encoding: 108 108 7
Width: 600
Flags: HMW
TeX: 108 0 0 0
Fore
108 770 m 0
 342 770 l 0
 342 67 l 0
 498 67 l 0
 498 0 l 0
 101 0 l 0
 101 67 l 0
 258 67 l 0
 258 703 l 0
 108 703 l 0
 108 770 l 0
EndSplineSet
EndChar
StartChar: t
Encoding: 116 116 8
Width: 600
Flags: HMW
TeX: 116 0 0 0
Fore
228 671 m 4
 319 686 l 4
 319.694 683.997 320.038 681.861 320.038 679.677 c 4
 320.038 669.83 314.243 666.199 312.175 653.169 c 4
 305.127 608.767 299 530 299 530 c 4
 472 530 l 4
 472 461 l 4
 298 461 l 4
 291.31 392.178 287.955 323.066 287.955 253.871 c 4
 287.955 177.138 290.735 156.77 291.356 152.111 c 4
 299.829 88.539 340.908 66.6734 380.424 66.6734 c 4
 413.027 66.6734 454.079 81.5989 499 115 c 4
 525 49 l 4
 525.001 48.9982 520.427 45.7143 520.378 45.6799 c 4
 477.837 15.6917 418.244 -10.1214 355.783 -10.1214 c 4
 301.714 -10.1214 260.342 10.8883 235.238 46.2593 c 4
 204.429 89.6687 204 142.866 204 190.358 c 4
 204 280.259 207.611 370.358 215 461 c 4
 91 461 l 4
 92 529 l 4
 218 529 l 4
 228 671 l 4
EndSplineSet
EndChar
StartChar: e
Encoding: 101 101 9
Width: 600
Flags: HMW
TeX: 101 0 0 0
Fore
309.698 542.272 m 4
 425.181 542.272 524.635 463.476 524.635 289.752 c 4
 524.635 277.483 524.079 265.221 523 253 c 5
 147.298 253 l 5
 153.598 94.4857 256.131 55.4411 326.953 55.4411 c 4
 379.589 55.4411 429.496 76.3575 464 115 c 5
 510 70 l 5
 464.675 15.507 396.045 -12.143 320.487 -12.143 c 4
 176.7 -12.143 66.2985 82.2264 66.2985 258.611 c 4
 66.2985 451.856 183.262 542.272 309.698 542.272 c 4
150.008 317 m 5
 441 317 l 5
 441.689 322.947 442.035 328.93 442.035 334.917 c 4
 442.035 415.252 381.841 478.169 303.883 478.169 c 4
 247.072 478.169 166.495 441.85 150.008 317 c 5
EndSplineSet
EndChar
StartChar: b
Encoding: 98 98 11
Width: 600
Flags: HMW
TeX: 98 0 0 0
Fore
79 771 m 4
 177 771 l 4
 177.237 770.165 177.357 769.3 177.357 768.429 c 4
 177.357 762.529 172.284 759.364 169.472 757.023 c 4
 164.417 752.816 164 749.477 164 745 c 4
 164 448 l 4
 164 448 164.776 449.333 164.777 449.334 c 4
 198.546 506.765 260.259 542.07 327.128 542.07 c 4
 431.167 542.07 540.005 456.138 540.005 271.2 c 4
 540.005 79.1558 427.245 -13.0764 318.695 -13.0764 c 4
 255.173 -13.0764 196.766 18.3503 162 70 c 4
 133 0 l 4
 79 0 l 4
 79 771 l 4
298.069 470.353 m 4
 245.668 470.353 197.567 440.714 177.844 392.983 c 4
 165.809 363.856 163.969 329.782 163.969 281.904 c 4
 163.969 236.092 163.584 204.899 167.224 177.364 c 4
 180.563 76.4436 260.537 61.9726 296.744 61.9726 c 4
 348.522 61.9726 453.238 91.5609 453.238 253.679 c 4
 453.238 440.584 347.817 470.353 298.069 470.353 c 4
EndSplineSet
EndChar
StartChar: H
Encoding: 72 72 12
Width: 600
Flags: HMW
TeX: 72 0 0 0
Fore
73 722 m 0
 163 722 l 0
 163.822 720.356 164.252 718.529 164.252 716.663 c 0
 164.252 707.549 157 706.38 157 694 c 0
 157 413 l 0
 440 413 l 0
 440 722 l 0
 528 722 l 0
 528.872 720.545 529.336 718.865 529.336 717.137 c 0
 529.336 708.364 521 708.006 521 696 c 0
 521 -1 l 0
 439 -1 l 0
 439 344 l 0
 157 344 l 0
 157 0 l 0
 73 0 l 0
 73 722 l 0
EndSplineSet
EndChar
StartChar: g
Encoding: 103 103 13
Width: 600
Flags: HMW
TeX: 103 0 0 0
Fore
155.954 364.263 m 4
 155.954 300.152 208.143 247.999 272.491 247.999 c 4
 336.833 247.999 389.059 300.157 389.059 364.307 c 4
 389.059 428.413 336.878 480.571 272.536 480.571 c 4
 208.19 480.571 155.954 428.416 155.954 364.263 c 4
277.609 546.548 m 4
 325.887 546.548 370.362 528.527 403 496 c 5
 439.722 526.778 486.098 543.63 533.979 543.63 c 4
 539.326 543.63 544.67 543.42 550 543 c 5
 560 475 l 5
 549.913 476.74 539.695 477.615 529.459 477.615 c 4
 496.841 477.615 464.884 468.735 437 452 c 4
 436.742 451.845 464.002 416.291 464.002 362.278 c 4
 464.002 264.564 378.096 180.942 273.257 180.942 c 4
 250.3 180.942 227.525 185.021 206 193 c 5
 200.797 188.707 168.184 161.819 168.184 133.805 c 4
 168.184 117.119 179.985 104.638 200.262 99.0661 c 4
 211.549 95.9645 236.341 92.4042 275.863 92.4042 c 4
 300.487 92.4042 325.632 93.5977 349.577 93.5977 c 4
 390.985 93.5977 445.534 90.2532 487.338 59.5827 c 4
 519.169 36.228 537.372 0.995051 537.372 -37.512 c 4
 537.372 -108.516 473.087 -199.384 293.795 -199.384 c 4
 108.265 -199.384 54.4288 -131.698 54.4288 -73.9838 c 4
 54.4288 -31.9211 83.7043 7.00723 140.521 43.2787 c 5
 107.075 60.8546 98.0562 91.7838 98.0562 113.827 c 4
 98.0562 147.839 119.806 183.618 158 216 c 5
 109.489 247.565 79.7405 301.443 79.7405 359.36 c 4
 79.7405 462.8 172.219 546.548 277.609 546.548 c 4
196.923 28.2968 m 5
 166.505 11.5929 130.974 -16.2077 130.974 -54.2593 c 4
 130.974 -72.7564 140.35 -101.884 183.142 -118.899 c 4
 223.159 -134.81 268.208 -136.199 292.38 -136.199 c 4
 327.814 -136.199 372.581 -133.958 411.372 -113.024 c 4
 447.725 -93.4056 460.904 -65.7032 460.904 -42.7611 c 4
 460.904 -19.4526 446.825 11.4411 397.736 18.8405 c 4
 367.367 23.4181 324.656 20.4798 285.59 21.9264 c 4
 245.08 23.4265 216.987 25.7017 196.923 28.2968 c 5
EndSplineSet
EndChar
StartChar: h
Encoding: 104 104 14
Width: 600
Flags: HMW
TeX: 104 0 0 0
Fore
91 0 m 4
 91 770 l 4
 187 770 l 4
 187.379 768.886 187.572 767.712 187.572 766.526 c 4
 187.572 760.484 182.866 756.916 180.206 754.11 c 4
 176.27 749.956 176 746.931 176 743 c 4
 176 436 l 4
 214.871 495.002 280.12 542.003 351.957 542.003 c 4
 412.281 542.003 466.544 508.129 492.899 448.568 c 4
 511.729 406.014 512 362.334 512 321 c 4
 512 321 l 4
 512 0 l 4
 430 0 l 4
 430 319 l 4
 430 356.393 429.762 401.823 401.11 436.061 c 4
 382.097 458.781 355.908 469.58 329.341 469.58 c 4
 273.362 469.58 222.49 422.787 202.308 395.893 c 4
 180.287 366.55 176 340.651 176 305 c 4
 176 0 l 4
 91 0 l 4
EndSplineSet
EndChar
StartChar: u
Encoding: 117 117 15
Width: 600
Flags: HMW
TeX: 117 0 0 0
Fore
83 529 m 4
 167 529 l 4
 167 234 l 4
 167 198.5 166.87 157.109 185.678 119.763 c 4
 206.758 77.9067 245.414 54.9999 286.847 54.9999 c 4
 337.84 54.9999 384.893 89.1882 409.153 133.494 c 4
 426.843 165.8 430 197.247 430 238 c 4
 430 529 l 4
 514 529 l 4
 514 48 l 4
 514 32.4901 514.914 15.8204 520 0 c 4
 432 0 l 4
 431.896 0.656711 l 4
 430.326 10.7268 429.861 20.8766 429.861 30.8362 c 4
 429.861 34.2014 429.914 37.5824 430 41 c 4
 431 81 l 4
 396.509 22.5849 333.904 -13.0167 267.52 -13.0167 c 4
 198.705 -13.0167 134.104 25.3613 103.15 94.6182 c 4
 83.4773 138.635 81.9835 182.663 81.9835 225.519 c 4
 82 234 l 4
 83 529 l 4
EndSplineSet
EndChar
StartChar: r
Encoding: 114 114 16
Width: 600
Flags: HMW
TeX: 114 0 0 0
Fore
125 529 m 0
 212 529 l 0
 209 427 l 0
 243.671 502.684 322.168 541.803 399.502 541.803 c 0
 458.959 541.803 507.697 518.114 541 484 c 0
 502 404 l 0
 493.106 412.505 489.308 421.668 482.352 430.554 c 0
 467.489 449.542 439.485 470.205 394.944 470.205 c 0
 357.514 470.205 294.325 457.033 246.222 380.981 c 0
 210.237 324.088 209 288.944 209 257 c 0
 209 -1 l 0
 125 -1 l 0
 125 529 l 0
EndSplineSet
EndChar
StartChar: i
Encoding: 105 105 17
Width: 600
Flags: HMW
TeX: 105 0 0 0
Fore
133 530 m 4
 345 530 l 4
 345 67 l 4
 469 67 l 4
 469 0 l 4
 126 0 l 4
 126 67 l 4
 261 67 l 4
 261 462 l 4
 133 462 l 4
 133 530 l 4
305.003 760 m 4
 338.171 760 365.019 733.28 365.019 700.493 c 4
 365.019 667.727 338.182 640.992 304.99 640.992 c 4
 271.818 640.992 244.981 667.716 244.981 700.486 c 4
 244.981 733.264 271.822 760 305.003 760 c 4
EndSplineSet
EndChar
StartChar: f
Encoding: 102 102 18
Width: 600
Flags: HMW
TeX: 102 0 0 0
Fore
408.022 777.453 m 4
 474.61 777.453 532.121 750.586 570 705 c 5
 532 628 l 5
 531.737 627.973 531.473 627.96 531.209 627.96 c 4
 528.049 627.96 523.186 629.968 522.586 637.737 c 4
 522.216 642.532 523.072 645.779 519.525 651.215 c 4
 499.034 682.621 457.191 711.981 403.749 711.981 c 4
 359.969 711.981 319.106 692.476 297.273 653.356 c 4
 277.495 617.916 278 577.346 278 539 c 6
 278 498 l 5
 451 498 l 5
 451 432 l 5
 278 432 l 5
 278 0 l 5
 198 0 l 5
 198 432 l 5
 83 432 l 5
 83 498 l 5
 198 498 l 5
 198 550 l 6
 198 596.99 199.926 641.1 227.059 685.226 c 4
 264.056 745.394 333.642 777.453 408.022 777.453 c 4
EndSplineSet
EndChar
StartChar: v
Encoding: 118 118 19
Width: 600
Flags: HMW
TeX: 118 0 0 0
Fore
56 530 m 4
 156 530 l 4
 156.273 528.708 156.4 527.387 156.4 526.06 c 4
 156.4 518.162 152.295 513.666 152.295 507.316 c 4
 152.295 504.529 153.032 502.45 154 500 c 4
 307 113 l 4
 392 310 l 4
 421.938 379.386 449.936 452.72 463.96 529.777 c 4
 464 530 l 4
 539 530 l 4
 521.386 449.313 491.663 372.127 460 298 c 4
 331 -4 l 4
 266 -4 l 4
 56 530 l 4
EndSplineSet
EndChar
StartChar: d
Encoding: 100 100 20
Width: 600
Flags: HMW
TeX: 100 0 0 0
Fore
440 452 m 0
 440 771 l 0
 529 771 l 0
 529.019 770.659 529.028 770.318 529.028 769.976 c 0
 529.028 755.765 518 754.597 518 738.23 c 0
 518 738 l 0
 519 49 l 0
 519.023 32.976 519.825 16.2095 524 0 c 0
 441 0 l 0
 436.758 12.8474 436 26.4226 436 39 c 0
 436 85 l 0
 402.754 25.5822 340.198 -11.7426 272.502 -11.7426 c 0
 170.172 -11.7426 61.9989 73.6686 61.9989 269.088 c 0
 61.9989 471.408 183.85 543.089 284.756 543.089 c 0
 403.559 543.089 440 451.631 440 452 c 0
288.638 475.041 m 0
 227.729 475.041 142.873 433.439 142.873 282.731 c 0
 142.873 108.363 231.935 61.8091 291.87 61.8091 c 0
 347.081 61.8091 401.871 98.7178 422.26 162.214 c 0
 430.843 188.943 433.29 218.613 433.29 258.526 c 0
 433.29 317.62 430.953 347.168 424.391 371.787 c 0
 403.443 450.383 335.053 475.041 288.638 475.041 c 0
EndSplineSet
EndChar
StartChar: p
Encoding: 112 112 21
Width: 600
Flags: HMW
TeX: 112 0 0 0
Fore
79 529 m 4
 164 529 l 4
 164 448 l 4
 199.965 505.862 263.255 541 331.196 541 c 4
 435.346 541 546.008 457.517 546.008 270.69 c 4
 546.008 76.5707 432.1 -14.1497 323.885 -14.1497 c 4
 259.582 -14.1497 200.339 17.6548 165 70 c 4
 165 -193 l 4
 80 -193 l 4
 79 529 l 4
300.599 469.911 m 4
 247.269 469.911 198.023 440.745 177.865 393.197 c 4
 166.21 365.704 163.875 333.505 163.875 288.853 c 4
 163.875 212.177 163.543 168.56 179.045 132.849 c 4
 199.943 84.7085 249.872 59.8372 300.077 59.8372 c 4
 349.666 59.8372 459.207 86.5412 459.207 253.487 c 4
 459.207 445.62 347.069 469.911 300.599 469.911 c 4
EndSplineSet
EndChar
StartChar: q
Encoding: 113 113 22
Width: 600
Flags: HMW
TeX: 113 0 0 0
Fore
443 452 m 4
 443 529 l 4
 522 529 l 4
 522 -193 l 4
 439 -193 l 4
 439 85 l 4
 405.898 26.0553 344.027 -11.6567 276.61 -11.6567 c 4
 159.718 -11.6567 58.9968 98.0805 58.9968 269.638 c 4
 58.9968 449.541 172.706 543.066 288.684 543.066 c 4
 406.139 543.066 443 451.618 443 452 c 4
291.949 475.034 m 4
 220.924 475.034 142.881 419.676 142.881 281.575 c 4
 142.881 131.999 219.654 61.7898 295.168 61.7898 c 4
 350.366 61.7898 404.936 99.0666 425.25 162.164 c 4
 433.889 188.997 436.294 218.713 436.294 258.291 c 4
 436.294 322.298 433.787 355.626 423.349 384.853 c 4
 400.165 449.771 339.214 475.034 291.949 475.034 c 4
EndSplineSet
EndChar
StartChar: y
Encoding: 121 121 23
Width: 600
Flags: HMW
TeX: 121 0 0 0
Fore
63 529 m 4
 167 529 l 4
 167.032 528.488 167.048 527.974 167.048 527.461 c 4
 167.048 517.834 161.833 512.392 161.833 504.226 c 4
 161.833 500.853 162.694 498.287 164 495 c 4
 319 105 l 4
 420 389 l 4
 436.209 434.578 451.255 481.532 460 530 c 4
 547 530 l 4
 531.434 478.243 513.035 427.412 494 377 c 4
 329 -60 l 4
 317.685 -89.9672 306.505 -117.887 283.381 -143.905 c 4
 248.107 -183.593 198.508 -201.18 150.696 -201.18 c 4
 107.172 -201.18 66.5488 -186.251 36 -157 c 4
 79 -82 l 4
 85.8372 -87.3566 85.2476 -95.0835 88.2407 -100.819 c 4
 91.1874 -106.465 111.21 -132.772 150.447 -132.772 c 4
 175.458 -132.772 202.725 -121.765 224.682 -98.2605 c 4
 241.33 -80.4388 251.852 -57.9865 261 -37 c 4
 278 2 l 4
 63 529 l 4
EndSplineSet
EndChar
StartChar: period
Encoding: 46 46 24
Width: 600
Flags: HMW
TeX: 112 0 0 0
Fore
355.002 53.4929 m 0
 355.002 17.0088 324.552 -13.046 286.441 -13.046 c 0
 248.415 -13.046 217.952 16.9803 217.952 53.509 c 0
 217.952 89.9628 248.383 120.002 286.462 120.002 c 0
 324.556 120.002 355.002 89.961 355.002 53.4929 c 0
EndSplineSet
EndChar
StartChar: comma
Encoding: 44 44 25
Width: 600
Flags: HMW
TeX: 99 0 0 0
Fore
364.152 22.8349 m 0
 364.152 -37.4943 321.706 -113.057 241 -195 c 0
 201 -160 l 0
 228.481 -134.726 247.951 -106.529 259.27 -87.9335 c 0
 264.928 -78.6381 276.427 -58.8335 276.427 -39.6582 c 0
 276.427 -15.8026 259.351 -5.13308 249.284 1.56253 c 0
 239.047 8.37111 216.973 21.6939 216.973 52.8528 c 0
 216.973 87.8494 245.536 118.93 283.672 118.93 c 0
 324.887 118.93 364.152 82.133 364.152 22.8349 c 0
EndSplineSet
EndChar
StartChar: plus
Encoding: 43 43 28
Width: 600
Flags: HMW
TeX: 112 0 0 0
Fore
267 606 m 5
 340 606 l 5
 340 408 l 5
 538 408 l 5
 538 337 l 5
 340 337 l 5
 340 120 l 5
 267 120 l 5
 267 337 l 5
 62 337 l 5
 62 408 l 5
 267 408 l 5
 267 606 l 5
EndSplineSet
EndChar
StartChar: minus
Encoding: 256 8722 29
Width: 600
Flags: HMW
TeX: 104 0 0 0
Fore
62 398 m 29
 538 398 l 29
 538 327 l 29
 62 327 l 29
 62 398 l 29
EndSplineSet
EndChar
StartChar: underscore
Encoding: 95 95 31
Width: 600
Flags: HMW
TeX: 117 0 0 0
Fore
50 -22 m 29
 550 -22 l 29
 550 -93 l 29
 50 -93 l 29
 50 -22 l 29
EndSplineSet
EndChar
StartChar: less
Encoding: 60 60 32
Width: 600
Flags: HMW
TeX: 108 0 0 0
Fore
541 575 m 29
 541 657 l 29
 50 399 l 29
 50 343 l 29
 544 55 l 29
 544 142 l 29
 139 370 l 29
 541 575 l 29
EndSplineSet
EndChar
StartChar: quotesingle
Encoding: 39 39 34
Width: 600
Flags: HMW
TeX: 113 0 0 0
Fore
379.412 702.635 m 0
 379.412 671.385 368.863 637.591 341 554 c 0
 322 497 l 0
 258 513 l 0
 274 571 l 0
 279.507 590.962 283.758 612.674 283.758 635.033 c 0
 283.758 659.589 277.753 681.663 277.753 705.799 c 0
 277.753 755.082 306.245 772.112 327.916 772.112 c 0
 350.657 772.112 379.412 753.121 379.412 702.635 c 0
EndSplineSet
EndChar
StartChar: slash
Encoding: 47 47 36
Width: 600
Flags: HMW
TeX: 115 0 0 0
Fore
84 -15 m 25
 447 770 l 25
 516 735 l 25
 152 -49 l 25
 84 -15 l 25
EndSplineSet
EndChar
StartChar: micro
Encoding: 181 181 38
Width: 600
Flags: HMW
TeX: 117 0 0 0
Fore
38 -193 m 0
 38.9384 -58.9867 61 87.3183 61 234 c 0
 61 529 l 0
 137 529 l 0
 137 215 l 0
 137 180.23 138.185 147.14 154.248 114.565 c 0
 174.86 72.7648 211.805 49.9847 248.66 49.9847 c 0
 290.595 49.9847 331.561 78.8859 352.027 125.633 c 0
 365.243 155.818 367 186.455 367 222 c 0
 367 529 l 0
 441 529 l 0
 441 134 l 0
 441 133.669 l 0
 441 115.961 440.893 94.8328 450.816 77.4988 c 0
 459.493 62.3411 473.279 54.8661 487.238 54.8661 c 0
 526.513 54.8661 551 111 551 111 c 0
 582 52 l 0
 559.818 18.1186 523.188 -12.1017 480.237 -12.1017 c 0
 431.193 -12.1017 391.479 28.1352 385 78 c 0
 358.195 22.6019 302.55 -13.0043 242.87 -13.0043 c 0
 186.505 -13.0043 135.089 18.999 111 70 c 0
 111.055 21 l 0
 111.055 -50.7646 110.699 -122.061 110 -193 c 0
 38 -193 l 0
EndSplineSet
EndChar
StartChar: braceleft
Encoding: 123 123 39
Width: 600
Flags: HMW
TeX: 98 0 0 0
Fore
71 329 m 4
 94 329 l 4
 114.58 329 146.235 328.585 171.534 355.122 c 4
 198.692 383.608 201.554 425.157 201.554 453.492 c 4
 201.554 481.497 198.598 507.731 198.598 536.425 c 4
 198.598 580.863 205.143 644.041 253.985 689.991 c 4
 302.793 735.909 367.188 738.077 420.483 738.077 c 4
 448 738 l 4
 483 738 l 4
 483 672 l 4
 443 672 l 4
 392.342 672 357.045 676.742 325.874 657.279 c 4
 281.263 629.425 279.43 573.026 279.43 549.494 c 4
 279.43 521.751 282.855 496.368 282.855 468.063 c 4
 282.855 440.501 279.771 406.244 264.439 374.889 c 4
 247.328 339.898 217.845 312.378 182 297 c 4
 225.958 281.72 279.876 237.615 279.876 116.516 c 4
 279.876 80.6922 276.205 50.3097 276.205 19.6336 c 4
 276.205 -20.2481 282.098 -70.9759 323.519 -99.512 c 4
 355.221 -121.352 391.356 -119 439 -119 c 4
 482 -119 l 4
 482 -184 l 4
 440 -184 l 4
 410.215 -184.066 l 4
 355.288 -184.066 300.517 -183.296 255.311 -146.146 c 4
 198.195 -99.2076 194.437 -23.3484 194.437 19.058 c 4
 194.437 64.2177 198.784 98.7588 198.784 134.884 c 4
 198.784 184.919 190.964 218.659 168.219 240.946 c 4
 144.453 264.235 114.606 264 95 264 c 4
 71 264 l 4
 71 329 l 4
EndSplineSet
EndChar
StartChar: asterisk
Encoding: 42 42 41
Width: 600
Flags: HMW
TeX: 97 0 0 0
Fore
257 601 m 0
 351 601 l 0
 349.036 587.217 345.49 584.406 344 570 c 0
 326 396 l 0
 510 480 l 0
 541 409 l 0
 342 349 l 0
 488 174 l 0
 425 124 l 0
 300 316 l 0
 170 123 l 0
 107 174 l 0
 258 348 l 0
 58 409 l 0
 88 484 l 0
 275 396 l 0
 257 601 l 0
EndSplineSet
EndChar
StartChar: O
Encoding: 79 79 42
Width: 600
Flags: HMW
TeX: 79 0 0 0
Fore
556.008 359.504 m 4
 556.008 296.095 551.428 206.273 513.069 128.645 c 4
 465.538 32.4568 382.426 -11.0151 304.485 -11.0151 c 4
 193.976 -11.0151 43.9996 78.3988 43.9996 362.113 c 4
 43.9996 645.884 196.081 730 303.761 730 c 4
 382.353 730 464.443 686.67 511.792 593.902 c 4
 551.172 516.748 556.008 427.05 556.008 359.504 c 4
300.361 654.01 m 4
 224.496 654.01 123.971 587.911 123.971 372.659 c 4
 123.971 143.053 223.619 67.987 304.834 67.987 c 4
 353.415 67.987 409.355 95.4454 442.765 165.717 c 4
 472.355 227.951 475.085 301.614 475.085 348.897 c 4
 475.085 410.01 471.386 479.154 446.984 539.849 c 4
 413.335 623.543 351.591 654.01 300.361 654.01 c 4
EndSplineSet
EndChar
StartChar: zero
Encoding: 48 48 43
Width: 600
Flags: HMW
TeX: 122 0 0 0
Fore
517.025 357.799 m 4
 517.025 137.688 423.592 -13.0208 297.523 -13.0208 c 4
 183.255 -13.0208 82.8194 113.451 82.8194 341.437 c 4
 82.8194 574.873 173.246 727.004 299.955 727.004 c 4
 420.815 727.004 517.025 585.161 517.025 357.799 c 4
299.205 656.004 m 4
 273.981 656.004 230.75 644.394 201.424 580.18 c 4
 177.708 528.251 159.966 454.416 159.966 351.701 c 4
 159.966 277.625 175.139 200.382 194.564 153.681 c 4
 226.53 76.8272 272.306 60.9815 302.777 60.9815 c 4
 329.251 60.9815 369.189 73.0652 399.83 130.196 c 4
 432.501 191.111 442.125 283.781 442.125 342.506 c 4
 442.125 419.575 425.889 514.517 403.194 568.433 c 4
 372.393 641.605 328.293 656.004 299.205 656.004 c 4
EndSplineSet
EndChar
StartChar: one
Encoding: 49 49 44
Width: 600
Flags: HMW
TeX: 111 0 0 0
Fore
355 723 m 0
 355 63 l 0
 485 63 l 0
 485 -1 l 0
 144 -1 l 0
 144 63 l 0
 278 63 l 0
 278 622 l 0
 135 581 l 0
 116 626 l 0
 301 723 l 0
 355 723 l 0
EndSplineSet
EndChar
StartChar: two
Encoding: 50 50 45
Width: 600
Flags: HMW
TeX: 116 0 0 0
Fore
100 610 m 0
 142.552 682.72 220.175 727.008 302.107 727.008 c 0
 419.975 727.008 511.536 636.692 511.536 524.194 c 0
 511.536 420.356 437.434 346.096 384.502 296.506 c 0
 332.446 247.737 248.223 175.987 188 71 c 0
 491 71 l 0
 494.775 71 497.729 71.2118 501.965 74.6003 c 0
 505.192 77.1818 509.041 81.6087 515.208 81.6087 c 0
 516.501 81.6087 517.781 81.4044 519 81 c 0
 519 0 l 0
 95 0 l 0
 95 51 l 0
 155.807 170.93 222.305 245.442 304.763 319.728 c 0
 357.118 366.894 431.226 430.278 431.226 518.244 c 0
 431.226 595.847 369.481 655.449 292.555 655.449 c 0
 229.497 655.449 186.147 616.16 169.108 589.668 c 0
 162.928 580.06 165.889 572.819 159 563 c 0
 100 610 l 0
EndSplineSet
EndChar
StartChar: N
Encoding: 78 78 46
Width: 600
Flags: HMW
TeX: 78 0 0 0
Fore
68 0 m 0
 68 722 l 0
 147 722 l 0
 450 187 l 0
 450 723 l 0
 536 723 l 0
 536.116 722.157 536.172 721.307 536.172 720.456 c 0
 536.172 708.404 528 706.547 528 692 c 0
 528 -1 l 0
 464 -1 l 0
 146 568 l 0
 146 0 l 0
 68 0 l 0
EndSplineSet
EndChar
StartChar: four
Encoding: 52 52 47
Width: 600
Flags: HMW
TeX: 102 0 0 0
Fore
373 723 m 0
 441 723 l 0
 441 271 l 0
 534 271 l 0
 534 199 l 0
 441 199 l 0
 441 0 l 0
 357 0 l 0
 357 200 l 0
 66 200 l 0
 66 260 l 0
 373 723 l 0
358 594 m 0
 146 271 l 0
 358 271 l 0
 358 594 l 0
EndSplineSet
EndChar
StartChar: eight
Encoding: 56 56 48
Width: 600
Flags: HMW
TeX: 101 0 0 0
Fore
309.222 731.061 m 0
 415.174 731.061 497.201 655.222 497.201 560.081 c 0
 497.201 490.519 451.989 422.756 382 386 c 0
 463.398 348.449 521.364 271.387 521.364 186.38 c 0
 521.364 76.38 425.926 -12.0638 299.122 -12.0638 c 0
 174.777 -12.0638 79.845 73.9895 79.845 181.557 c 0
 79.845 264.873 138.311 343.716 224 384 c 0
 158.829 417.286 113.953 482.052 113.953 553.066 c 0
 113.953 650.336 198.716 731.061 309.222 731.061 c 0
285 351 m 0
 216.282 322.472 162.993 260.535 162.993 192.304 c 0
 162.993 119.655 224.278 60.9956 302.825 60.9956 c 0
 380.01 60.9956 439.255 117.609 439.255 187.223 c 0
 439.255 257.778 377.894 321.691 285 351 c 0
303.003 663.016 m 0
 239.989 663.016 191.919 616.894 191.919 559.982 c 0
 191.919 464.568 319 415 319 415 c 0
 375.248 445.252 418 499.154 418 554.724 c 0
 418 615.015 367.541 663.016 303.003 663.016 c 0
EndSplineSet
EndChar
StartChar: five
Encoding: 53 53 49
Width: 600
Flags: HMW
TeX: 102 0 0 0
Fore
133 722 m 0
 499 722 l 0
 499 649 l 0
 201 649 l 0
 190 441 l 0
 227.409 459.661 267.74 469.014 307.613 469.014 c 0
 428.503 469.014 526.046 382.829 526.046 228.267 c 0
 526.046 71.7703 422.799 -13.0166 297.988 -13.0166 c 0
 212.187 -13.0166 131.88 27.3246 84 98 c 0
 156 152 l 0
 165.915 144.928 159.968 133.516 164.636 124.688 c 0
 168.652 117.094 219.025 57.9865 296.99 57.9865 c 0
 374.5 57.9865 443.032 118.764 443.032 229.807 c 0
 443.032 344.87 371.274 402.108 295.262 402.108 c 0
 245.957 402.108 194.845 377.882 160 334 c 0
 108 355 l 0
 133 722 l 0
EndSplineSet
EndChar
StartChar: S
Encoding: 83 83 50
Width: 600
Flags: HMW
TeX: 83 0 0 0
Fore
514 636 m 0
 463 567 l 0
 460.467 567.77 457.129 570.059 456.897 576.479 c 0
 456.744 580.739 457.326 583.155 454.259 587.627 c 0
 426.295 628.402 374.583 659.139 307.322 659.139 c 0
 224.667 659.139 176.928 608.659 176.928 553.304 c 0
 176.928 523.788 190.278 480.959 250.701 445.621 c 0
 316.767 406.982 418.491 386.478 481.296 327.335 c 0
 526.491 284.776 537.39 234.352 537.39 196.567 c 0
 537.39 105.698 472.479 -12.0688 296.743 -12.0688 c 0
 207.646 -12.0688 126.78 19.1667 70 81 c 0
 118 164 l 0
 123.54 161.188 123.285 154.812 123.259 152.899 c 0
 123.193 148.118 122.894 145.188 126.519 140.598 c 0
 158.801 99.712 219.842 60.9499 299.1 60.9499 c 0
 403.921 60.9499 456.763 129.108 456.763 191.929 c 0
 456.763 224.218 443.541 261.931 396.186 291.612 c 0
 341.618 325.813 237.401 350.797 170.523 400.177 c 0
 110.323 444.627 93.8001 498.906 93.8001 541.004 c 0
 93.8001 639.749 183.363 726.008 313.761 726.008 c 0
 392.466 726.008 465.102 694.099 514 636 c 0
EndSplineSet
EndChar
StartChar: M
Encoding: 77 77 51
Width: 600
Flags: HMW
TeX: 77 0 0 0
Fore
57 722 m 0
 121 722 l 0
 300 369 l 0
 482 723 l 0
 543 723 l 0
 543 -1 l 0
 466 -1 l 0
 466 545 l 0
 310 253 l 0
 279 255 l 0
 133 541 l 0
 133 -1 l 0
 57 -1 l 0
 57 722 l 0
EndSplineSet
EndChar
StartChar: L
Encoding: 76 76 52
Width: 600
Flags: HMW
TeX: 76 0 0 0
Fore
87 722 m 0
 181 722 l 0
 181.172 720.866 181.256 719.721 181.256 718.572 c 0
 181.256 703.818 171 701.431 171 683 c 0
 171 69 l 0
 519 69 l 0
 519 -1 l 0
 87 -1 l 0
 87 722 l 0
EndSplineSet
EndChar
StartChar: ampersand
Encoding: 38 38 53
Width: 600
Flags: HMW
TeX: 78 0 0 0
Fore
275.219 729.113 m 0
 362.09 729.113 430.049 664.093 430.049 574.842 c 0
 430.049 499.041 380.587 423.321 305 382 c 0
 435 201 l 0
 462.526 232.964 478.373 266.737 487.03 294.093 c 0
 487.898 296.839 488.581 299.921 488.581 303.138 c 0
 488.581 307.706 486.98 312.21 486.98 316.938 c 0
 486.98 322.596 489.256 326.511 492 329 c 0
 567 277 l 0
 540.906 230.061 511.512 184.947 479 142 c 0
 560 37 l 0
 492 -14 l 0
 428 88 l 0
 382.006 30.9903 310.65 -12.0313 232.619 -12.0313 c 0
 128.337 -12.0313 51.7317 66.2734 51.7317 169.432 c 0
 51.7317 258.731 108.958 348.313 198 397 c 0
 155.129 448.798 115.988 513.456 115.988 577.085 c 0
 115.988 663.563 187.113 729.113 275.219 729.113 c 0
195.898 575.613 m 0
 195.898 545.141 208.5 503.946 266 432 c 0
 319.757 461.715 354.165 516.513 354.165 569.305 c 0
 354.165 624.184 316.438 660.403 273.735 660.403 c 0
 232.647 660.403 195.898 626.428 195.898 575.613 c 0
238 343 m 0
 176.427 303.101 139.365 237.448 139.365 177.45 c 0
 139.365 110.152 186.019 62.8265 245.174 62.8265 c 0
 322.406 62.8265 386 143 386 143 c 0
 238 343 l 0
EndSplineSet
EndChar
StartChar: F
Encoding: 70 70 54
Width: 600
Flags: HMW
TeX: 78 0 0 0
Fore
100 723 m 0
 516 723 l 0
 516 652 l 0
 182 652 l 0
 182 425 l 0
 452 425 l 0
 452 355 l 0
 182 355 l 0
 182 0 l 0
 100 0 l 0
 100 723 l 0
EndSplineSet
EndChar
StartChar: w
Encoding: 119 119 55
Width: 600
Flags: HMW
TeX: 119 0 0 0
Fore
28 530 m 4
 113 530 l 4
 113.863 527.451 114.29 524.743 114.29 521.981 c 4
 114.29 512.217 108.881 505.273 108.881 494.91 c 4
 108.881 491.951 109.361 489.171 110 486 c 4
 187 104 l 4
 278 480 l 4
 329 480 l 4
 441 105 l 4
 483.542 385.942 490.32 450.093 490.32 509.057 c 4
 490.32 515.706 490.217 522.355 490 529 c 4
 567 529 l 4
 544.196 351.317 514.841 174.519 479 -1 c 4
 401 -1 l 4
 303 342 l 4
 210 -1 l 4
 135 -1 l 4
 28 530 l 4
EndSplineSet
EndChar
StartChar: T
Encoding: 84 84 59
Width: 600
Flags: HMW
TeX: 84 0 0 0
Fore
46 723 m 0
 546 723 l 0
 546 650 l 0
 333 650 l 0
 333 -1 l 0
 251 -1 l 0
 251 650 l 0
 46 650 l 0
 46 723 l 0
EndSplineSet
EndChar
StartChar: hyphen
Encoding: 45 45 60
Width: 600
Flags: HMW
TeX: 104 0 0 0
Fore
92 403 m 0
 509 403 l 0
 509 326 l 0
 92 326 l 0
 92 403 l 0
EndSplineSet
EndChar
StartChar: exclam
Encoding: 33 33 61
Width: 600
Flags: HMW
TeX: 101 0 0 0
Fore
356.002 55.4912 m 0
 356.002 17.7 325.296 -13.0169 287.479 -13.0169 c 0
 249.672 -13.0169 218.954 17.6866 218.954 55.4935 c 0
 218.954 93.2861 249.66 124.002 287.478 124.002 c 0
 325.284 124.002 356.002 93.2972 356.002 55.4912 c 0
289.272 774.001 m 0
 311.02 774.001 335.403 759.407 344.346 724.32 c 0
 346.091 717.475 348.76 704.489 348.76 677.25 c 0
 348.76 632.978 340.895 589.116 338 545 c 0
 317 225 l 0
 259 225 l 0
 242 545 l 0
 237.955 621.137 230.565 649.274 230.565 686.67 c 0
 230.565 708.378 233.144 724.012 238.462 736.818 c 0
 248.803 761.721 269.202 774.001 289.272 774.001 c 0
EndSplineSet
EndChar
StartChar: U
Encoding: 85 85 63
Width: 600
Flags: HMW
TeX: 85 0 0 0
Fore
68 722 m 0
 159 722 l 0
 159.791 720.163 160.2 718.172 160.2 716.15 c 0
 160.2 709.235 155.631 704.498 152.571 700.195 c 0
 148.296 694.182 148 690.266 148 685 c 0
 148 248 l 0
 148 212.142 148.701 177.155 165.336 141.578 c 0
 191.299 86.0528 245.805 55.9211 303.067 55.9211 c 0
 359.414 55.9211 413.783 85.3437 440.467 140.549 c 0
 458.225 177.288 459 213.693 459 251 c 0
 459 722 l 0
 536 722 l 0
 536 253 l 0
 536 200.192 534.408 150.173 507.085 99.8136 c 0
 466.018 24.1247 384.91 -13.0732 301.461 -13.0732 c 0
 216.265 -13.0732 136.155 24.9771 96.1412 99.2172 c 0
 69.4091 148.814 68 197.96 68 249 c 0
 68 249 l 0
 68 722 l 0
EndSplineSet
EndChar
StartChar: numbersign
Encoding: 35 35 64
Width: 600
Flags: HMW
TeX: 110 0 0 0
Fore
211 723 m 5
 281 726 l 5
 256.94 527.366 l 5
 384.587 528.891 l 5
 407 717 l 5
 479 720 l 5
 455.758 529.742 l 5
 561 531 l 5
 555 475 l 5
 448.941 473.939 l 5
 425.118 278.915 l 5
 540 281 l 5
 534 227 l 5
 418.548 225.134 l 5
 393 16 l 5
 323 12 l 5
 348.259 223.998 l 5
 219.943 221.924 l 5
 195 16 l 5
 127 13 l 5
 151.587 220.82 l 5
 39 219 l 5
 44 272 l 5
 157.887 274.066 l 5
 181.217 471.262 l 5
 55 470 l 5
 59 525 l 5
 187.757 526.539 l 5
 211 723 l 5
250.228 471.952 m 5
 226.409 275.31 l 5
 354.65 277.637 l 5
 377.955 473.23 l 5
 250.228 471.952 l 5
EndSplineSet
EndChar
StartChar: j
Encoding: 106 106 65
Width: 600
Flags: HMW
TeX: 106 0 0 0
Fore
156 530 m 4
 437 530 l 4
 437 37 l 4
 437 -8.68478 435.772 -52.1052 413.163 -96.3812 c 4
 377.277 -166.657 303.238 -202.181 227.699 -202.181 c 4
 162.017 -202.181 103.902 -175.027 66 -128 c 4
 120 -56 l 4
 127.204 -61.9473 125.358 -69.4816 130.11 -77.2483 c 4
 134.378 -84.2222 169.009 -130.016 233.016 -130.016 c 4
 277.791 -130.016 319.506 -106.298 339.459 -63.2398 c 4
 352.497 -35.1019 353 -7.27543 353 21 c 4
 353 461 l 4
 156 461 l 4
 156 530 l 4
396.003 760 m 4
 429.171 760 456.019 733.28 456.019 700.493 c 4
 456.019 667.727 429.182 640.992 395.99 640.992 c 4
 362.818 640.992 335.981 667.716 335.981 700.486 c 4
 335.981 733.264 362.822 760 396.003 760 c 4
EndSplineSet
EndChar
StartChar: x
Encoding: 120 120 66
Width: 600
Flags: HMW
TeX: 120 0 0 0
Fore
430 530 m 1
 515 530 l 1
 343.447 272.196 l 1
 538 0 l 1
 443 0 l 1
 297.06 205.835 l 1
 159 0 l 1
 65 0 l 1
 250.856 269.049 l 1
 68 530 l 1
 159 530 l 1
 297.737 333.918 l 1
 430 530 l 1
EndSplineSet
EndChar
StartChar: G
Encoding: 71 71 67
Width: 600
Flags: HMW
TeX: 71 0 0 0
Fore
331.256 729.021 m 0
 420.211 729.021 499.721 682.82 541 608 c 0
 484 550 l 0
 474.934 555.815 472.124 564.988 468.568 572.778 c 0
 446.485 621.163 395.191 658.068 330.753 658.068 c 0
 269.931 658.068 205.563 624.733 168.312 554.634 c 0
 140.066 501.479 131.993 436.71 131.993 369.475 c 0
 131.993 293.213 140.467 191.911 200.744 123.216 c 0
 240.013 78.4622 291.335 59.9971 338.046 59.9971 c 0
 381.069 59.9971 427.485 75.1275 468 104 c 0
 468 276 l 0
 337 276 l 0
 337 346 l 0
 543 346 l 0
 543 64 l 0
 474.935 13.8821 397.763 -11.0487 330.884 -11.0487 c 0
 204.891 -11.0487 51.8871 79.1096 51.8871 352.371 c 0
 51.8871 669.165 235.235 729.021 331.256 729.021 c 0
EndSplineSet
EndChar
StartChar: k
Encoding: 107 107 68
Width: 600
Flags: HMW
TeX: 107 0 0 0
Fore
87 770 m 4
 182 770 l 4
 182.131 769.206 182.195 768.403 182.195 767.598 c 4
 182.195 760.678 177.644 756.348 174.831 752.514 c 4
 171.217 747.588 171 744.258 171 740 c 4
 171 286 l 4
 436 532 l 4
 456.53 526.949 477.704 526 498 526 c 4
 528 526 l 4
 305 316 l 4
 565 -1 l 4
 562.299 -0.982364 559.597 -0.973546 556.896 -0.973546 c 4
 501.401 -0.973546 457 -5 457 -5 c 4
 241 265 l 4
 171 200 l 4
 171 -1 l 4
 87 -1 l 4
 87 770 l 4
EndSplineSet
EndChar
StartChar: z
Encoding: 122 122 69
Width: 600
Flags: HMW
TeX: 122 0 0 0
Fore
92 529 m 4
 505 530 l 4
 504 473 l 4
 181 71 l 4
 496 71 l 4
 511.543 71 514.162 78.2618 527.386 78.2618 c 4
 528.596 78.2618 529.804 78.1775 531 78 c 4
 531 -1 l 4
 68 -1 l 4
 69 56 l 4
 396 457 l 4
 92 457 l 4
 92 529 l 4
EndSplineSet
EndChar
StartChar: dollar
Encoding: 36 36 70
Width: 600
Flags: HMW
TeX: 100 0 0 0
Fore
282 754 m 1
 357 754 l 1
 357.544 752.762 357.825 751.416 357.825 750.046 c 0
 357.825 741.462 350 741.128 350 730 c 2
 350 685.53 l 1
 418.468 678.631 479.448 647.798 522 597 c 1
 472 534 l 1
 469.529 534.647 466.405 536.859 465.998 542.031 c 0
 465.734 545.385 466.586 548.59 464.873 552.132 c 0
 464.366 553.181 463.571 554.432 459.966 558.804 c 0
 435.884 588.015 400.197 609.606 350 617.169 c 1
 350 394.007 l 1
 376.209 385.213 402.685 376.233 426.693 365.906 c 0
 451.098 355.408 542.789 316.114 542.789 210.306 c 0
 542.789 127.201 481.207 35.8962 350 18.7898 c 1
 350 -54 l 1
 282 -54 l 1
 282 16.6512 l 1
 202.131 21.6382 130.573 53.0648 79 109 c 1
 129 178 l 1
 134.731 175.387 134.178 168.719 134.1 167.269 c 0
 133.829 162.202 133.224 159.078 137.667 154.35 c 0
 170.199 119.732 221.081 90.2105 282 83.4419 c 1
 282 338.141 l 1
 260.848 345.221 239.279 353.278 218.422 363.137 c 0
 121.008 409.184 101.838 474.448 101.838 516.644 c 0
 101.838 600.059 175.207 670.816 282 684.586 c 1
 282 754 l 1
350 316.849 m 1
 350 85.8432 l 1
 424.317 100.222 467.128 152.561 467.128 204.903 c 0
 467.128 228.695 458.246 267.247 409.599 293.705 c 0
 393.686 302.36 373.118 309.563 350 316.849 c 1
282 418.096 m 1
 282 618.618 l 1
 209.129 610.103 178.407 566.678 178.407 526.615 c 0
 178.407 501.336 190.349 466.609 241.42 437.196 c 0
 253.404 430.294 267.16 424.024 282 418.096 c 1
EndSplineSet
EndChar
StartChar: A
Encoding: 65 65 71
Width: 600
Flags: HMW
TeX: 65 0 0 0
Fore
27 -1 m 0
 282 735 l 0
 291 735 l 0
 570 0 l 0
 486 0 l 0
 406 211 l 0
 177 211 l 0
 107 -1 l 0
 27 -1 l 0
388 274 m 0
 286 549 l 0
 193 274 l 0
 388 274 l 0
EndSplineSet
EndChar
StartChar: C
Encoding: 67 67 72
Width: 600
Flags: HMW
TeX: 67 0 0 0
Fore
331.618 728 m 0
 424.645 728 509.243 675.337 549.67 592.147 c 0
 551.569 588.241 553 585 553 585 c 0
 476 547 l 0
 470.67 550.736 470.716 557.019 470.716 558.375 c 4
 470.716 561.257 471.207 564.142 471.207 567.016 c 4
 471.207 572.403 469.516 575.396 467.216 579.368 c 0
 438.075 629.699 385.397 663.168 328.882 663.168 c 0
 226.816 663.168 135.987 555.779 135.987 363.969 c 0
 135.987 168.839 229.418 57.9939 335.655 57.9939 c 0
 392.317 57.9939 449.702 90.8843 483 146 c 0
 543 107 l 0
 497.694 32.979 417.217 -12.0016 331.109 -12.0016 c 0
 212.178 -12.0016 56.9666 77.8506 56.9666 356.807 c 0
 56.9666 645.838 219.327 728 331.618 728 c 0
EndSplineSet
EndChar
StartChar: B
Encoding: 66 66 73
Width: 600
Flags: HMW
TeX: 66 0 0 0
Fore
66 722 m 0
 271 722 l 0
 315.399 722 360.704 721.5 405.879 701.856 c 0
 473.724 672.354 511 610.49 511 545.61 c 0
 511 476.391 468.788 413.433 404 387 c 0
 484.894 359.735 539.123 283.98 539.123 199.903 c 0
 539.123 125.489 496.411 54.7898 418.712 21.7722 c 0
 368.818 0.569996 319.11 0 270 0 c 0
 66 0 l 0
 66 722 l 0
146 653 m 0
 146 423 l 0
 259 423 l 0
 291.145 423 325.727 423.132 358.963 437.515 c 0
 404.424 457.189 429.169 496.927 429.169 538.138 c 0
 429.169 579.684 403.799 620.586 355.923 639.925 c 0
 323.833 652.887 290.834 653 260 653 c 0
 146 653 l 0
146 355 m 0
 146 71 l 0
 284 71 l 0
 315.204 71 345.804 71.5467 376.985 85.5968 c 0
 426.877 108.078 454.347 156.379 454.347 208.01 c 0
 454.347 260.227 425.928 311.754 372.336 337.19 c 0
 336.297 354.296 300.473 355 264 355 c 0
 146 355 l 0
EndSplineSet
EndChar
StartChar: bracketleft
Encoding: 91 91 74
Width: 600
Flags: HMW
TeX: 98 0 0 0
Fore
162 776 m 0
 493 776 l 0
 493 707 l 0
 236 707 l 0
 236 -37 l 0
 494 -37 l 0
 494 -103 l 0
 162 -103 l 0
 162 776 l 0
EndSplineSet
EndChar
StartChar: parenleft
Encoding: 40 40 76
Width: 600
Flags: HMW
TeX: 112 0 0 0
Fore
464 772 m 4
 499 701 l 4
 495.074 698.763 491.329 698.611 489.669 698.611 c 4
 485.073 698.611 481.395 699.932 477.323 699.932 c 4
 472.717 699.932 469.928 698.14 466.835 696.315 c 4
 331.453 616.467 251.273 468.859 251.273 303.345 c 4
 251.273 123.314 344.63 -46.9685 503 -139 c 4
 465 -200 l 4
 281.456 -103.658 170.68 88.9922 170.68 299.462 c 4
 170.68 511.567 284.678 693.118 464 772 c 4
EndSplineSet
EndChar
StartChar: parenright
Encoding: 41 41 77
Width: 600
Flags: HMW
TeX: 112 0 0 0
Fore
100 699 m 0
 122 771 l 0
 310.266 684.352 432 496.633 432 290.289 c 0
 432 82.1043 308.169 -110.384 116 -202 c 0
 94 -132 l 0
 250.594 -49.1168 350.028 112.597 350.028 286.978 c 0
 350.028 458.955 253.152 617.58 100 699 c 0
EndSplineSet
EndChar
StartChar: three
Encoding: 51 51 78
Width: 600
Flags: HMW
TeX: 116 0 0 0
Fore
486.039 541.353 m 0
 486.039 471.159 442.787 409.132 378 385 c 0
 452.906 357.628 502.026 284.533 502.026 198.625 c 0
 502.026 86.4453 418.041 -12.1905 279.723 -12.1905 c 0
 207.414 -12.1905 138.424 16.1652 90 70 c 0
 151 143 l 0
 161.292 132.464 156.135 121.234 165.975 110.147 c 0
 171.105 104.367 211.734 61.2614 278.997 61.2614 c 0
 363.525 61.2614 424.303 129.155 424.303 208.449 c 0
 424.303 294.507 352.456 345.579 254.688 345.579 c 0
 242.418 345.579 230.159 344.711 218 343 c 0
 218 408 l 0
 286.501 408.15 319.346 420.748 332.04 426.323 c 0
 382.02 448.274 409.043 495.946 409.043 539.93 c 0
 409.043 600.917 357.627 652.425 283.533 652.425 c 0
 238.887 652.425 192.677 633.092 159 597 c 0
 114 647 l 0
 159.315 696.504 222.364 724.29 287.492 724.29 c 0
 401.687 724.29 486.039 639.912 486.039 541.353 c 0
EndSplineSet
EndChar
StartChar: D
Encoding: 68 68 79
Width: 600
Flags: HMW
TeX: 68 0 0 0
Fore
72 722 m 0
 241 722 l 0
 304.677 722 356.645 717.434 409.104 683.3 c 0
 501.966 622.876 543.181 501.213 543.181 362.199 c 0
 543.181 204.202 486.7 81.1929 383.192 27.9784 c 0
 332.292 1.81019 284.391 -1 227 -1 c 0
 72 -1 l 0
 72 722 l 0
149 653 m 0
 149 63 l 0
 223 63 l 0
 268.397 63 312.737 65.0195 358.002 95.5625 c 0
 415.69 134.488 461.352 213.696 461.352 351.331 c 0
 461.352 455.017 438.945 557.739 371.85 613.352 c 0
 327.165 650.39 281.491 653 236 653 c 0
 149 653 l 0
EndSplineSet
EndChar
StartChar: E
Encoding: 69 69 80
Width: 600
Flags: HMW
TeX: 69 0 0 0
Fore
78 723 m 0
 521 723 l 0
 521 651 l 0
 155 651 l 0
 155 414 l 0
 457 414 l 0
 457 340 l 0
 155 340 l 0
 155 72 l 0
 518 72 l 0
 518 0 l 0
 78 0 l 0
 78 723 l 0
EndSplineSet
EndChar
StartChar: V
Encoding: 86 86 81
Width: 600
Flags: HMW
TeX: 86 0 0 0
Fore
39 723 m 0
 124 723 l 0
 309 168 l 0
 484 722 l 0
 564 722 l 0
 322 -5 l 0
 285 -5 l 0
 39 723 l 0
EndSplineSet
EndChar
StartChar: percent
Encoding: 37 37 82
Width: 600
Flags: HMW
TeX: 112 0 0 0
Fore
463 722 m 0
 541 722 l 0
 137 0 l 0
 63 0 l 0
 463 722 l 0
171.904 735.106 m 0
 242.474 735.106 302.16 670.55 302.16 582.187 c 0
 302.16 496.123 243.528 431.982 172.952 431.982 c 0
 101.84 431.982 42.8516 496.911 42.8516 583.448 c 0
 42.8516 672.526 103.042 735.106 171.904 735.106 c 0
170.33 674.005 m 0
 147.48 674.005 112.978 656.124 112.978 587.43 c 0
 112.978 508.953 151.261 493.911 172.149 493.911 c 0
 195.202 493.911 229.092 512.141 229.092 579.148 c 0
 229.092 661.667 189.098 674.005 170.33 674.005 c 0
569.018 138.593 m 0
 569.018 51.7449 509.983 -12.1238 439.695 -12.1238 c 0
 369.049 -12.1238 309.98 52.0529 309.98 138.262 c 0
 309.98 225.089 369.219 289.001 439.589 289.001 c 0
 510.127 289.001 569.018 224.871 569.018 138.593 c 0
439.32 229.005 m 0
 414.436 229.005 378.994 208.941 378.994 138.34 c 0
 378.994 69.8907 413.149 46.7696 440.303 46.7696 c 0
 465.114 46.7696 500.009 66.7942 500.009 135.903 c 0
 500.009 210.33 463.157 229.005 439.32 229.005 c 0
EndSplineSet
EndChar
StartChar: J
Encoding: 74 74 83
Width: 600
Flags: HMW
TeX: 74 0 0 0
Fore
209 722 m 0
 539 722 l 0
 539 654 l 0
 428 654 l 0
 428 242 l 0
 428 189.714 427.529 134.891 399.871 83.1312 c 0
 366.41 20.5134 303.824 -13.1014 235.465 -13.1014 c 0
 171.621 -13.1014 109.768 15.8267 67 67 c 0
 121 133 l 0
 127.875 126.68 123.023 118.695 128.162 112.068 c 0
 130.663 108.842 176.362 58.6812 236.758 58.6812 c 0
 271.444 58.6812 302.787 75.9435 322.107 104.722 c 0
 348.989 144.764 348 196.3 348 241 c 0
 348 654 l 0
 209 654 l 0
 209 722 l 0
EndSplineSet
EndChar
StartChar: K
Encoding: 75 75 84
Width: 600
Flags: HMW
TeX: 75 0 0 0
Fore
59 723 m 0
 156 723 l 0
 156.131 722.206 156.195 721.403 156.195 720.598 c 0
 156.195 713.678 151.644 709.348 148.831 705.514 c 0
 145.218 700.589 145 697.26 145 693 c 0
 145 389 l 0
 447 728 l 0
 466.858 722.945 487.384 722 507 722 c 0
 537 722 l 0
 264 410 l 0
 556 -1 l 0
 552.262 -0.99432 l 0
 497.556 -0.99432 453.025 -5.03641 453 -5 c 0
 202 361 l 0
 145 299 l 0
 145 0 l 0
 59 0 l 0
 59 723 l 0
EndSplineSet
EndChar
StartChar: P
Encoding: 80 80 85
Width: 600
Flags: HMW
TeX: 80 0 0 0
Fore
78 722 m 0
 298 722 l 0
 344.56 722 389.35 720.81 434.624 697.494 c 0
 502.828 662.37 538.016 591.718 538.016 518.699 c 0
 538.016 445.503 502.883 376.352 436.114 342.409 c 0
 392.262 320.116 348.977 319 304 319 c 0
 304 319 l 0
 162 319 l 0
 162 0 l 0
 78 0 l 0
 78 722 l 0
162 646 m 0
 161 390 l 0
 307 390 l 0
 335.466 390 362.993 390.678 390.831 404.763 c 0
 432.659 425.926 455.003 468.944 455.003 514.986 c 0
 455.003 561.985 431.629 607.921 386.619 630.5 c 0
 357.19 645.263 328.165 646 298 646 c 0
 162 646 l 0
EndSplineSet
EndChar
StartChar: question
Encoding: 63 63 86
Width: 600
Flags: HMW
TeX: 113 0 0 0
Fore
313 118 m 0
 330.506 117.868 347.929 110.972 360.579 98.872 c 0
 373.23 86.771 380.862 69.506 381 52 c 0
 381.137 34.655 373.92 17.425 361.66 5.155 c 0
 349.4 -7.114 332.334 -14.376 315 -15 c 0
 296.491 -15.666 277.758 -8.724 264.377 4.082 c 0
 250.996 16.888 243.282 35.493 244 54 c 0
 244.672 71.335 252.678 88.212 265.481 99.919 c 0
 278.284 111.626 295.652 118.131 313 118 c 0
85 650 m 0
 107.37 686.033 139.038 716.201 176 737 c 0
 216.332 759.696 262.724 771.502 309 771 c 0
 336.494 770.702 364.034 765.975 389.671 756.037 c 0
 415.308 746.099 438.921 730.799 458 711 c 0
 490.648 677.121 509.304 630.904 513 584 c 0
 515.634 550.569 510.571 516.306 496.466 485.882 c 0
 482.36 455.458 458.887 430.318 433 409 c 0
 409.991 390.052 385.122 372.305 368.672 347.448 c 0
 360.446 335.02 354.554 321.057 351.423 306.486 c 0
 348.291 291.915 348 276.904 348 262 c 0
 348 214 l 0
 272 214 l 0
 272 262 l 0
 272 281.259 272.371 300.644 276.23 319.513 c 0
 280.089 338.381 287.327 356.527 297.325 372.987 c 0
 317.323 405.907 347.573 431.067 373 460 c 0
 387.53 476.533 400.5 494.649 409.388 514.784 c 0
 418.277 534.919 423 557.013 422 579 c 0
 420.604 609.701 407.574 639.9 385.46 661.242 c 0
 363.346 682.584 332.728 694.485 302 695 c 0
 271.313 695.515 241 685.309 215 669 c 0
 185.763 650.661 161.411 624.799 144 595 c 0
 85 650 l 0
EndSplineSet
EndChar
StartChar: at
Encoding: 64 64 87
Width: 600
Flags: HMW
TeX: 97 0 0 0
Fore
514 35 m 0
 465.464 3.64213 409.094 -13.0048 351.681 -13.0048 c 0
 207.208 -13.0048 45.979 94.7502 45.979 363.717 c 0
 45.979 626.559 197.939 733 324.448 733 c 0
 408.454 733 485.773 686.98 523.017 604.767 c 0
 548.262 549.038 549 493.218 549 438 c 0
 549 203 l 0
 479 203 l 0
 479 247 l 0
 450.306 212.734 407.914 192.94 363.251 192.94 c 0
 280.295 192.94 212.67 260.162 212.67 343.965 c 0
 212.67 406.432 250.973 468.115 322.793 496.582 c 0
 368.543 514.716 414.747 515 459 515 c 0
 476 515 l 0
 475.939 600.733 407.704 671.014 321.098 671.014 c 0
 220.711 671.014 112.988 575.649 112.988 367.243 c 0
 112.988 141.221 246.229 52.9323 358.489 52.9323 c 0
 402.842 52.9323 446.203 66.182 483 91 c 0
 514 35 l 0
479 457 m 0
 460 457 l 0
 460 457 l 0
 418.559 457 369.9 456.608 330.805 429.771 c 0
 299.601 408.352 284.927 377.014 284.927 347.37 c 0
 284.927 297.233 325.741 256.964 376.598 256.964 c 0
 410.056 256.964 444.081 274.841 462.01 309.68 c 0
 480.087 344.808 479 389.066 479 435 c 0
 479 457 l 0
EndSplineSet
EndChar
StartChar: bar
Encoding: 124 124 88
Width: 600
Flags: HMW
TeX: 98 0 0 0
Fore
261 756 m 0
 339 756 l 0
 339 -175 l 0
 261 -175 l 0
 261 756 l 0
EndSplineSet
EndChar
StartChar: asciitilde
Encoding: 126 126 89
Width: 600
Flags: HMW
TeX: 97 0 0 0
Fore
116 396 m 4
 58 434 l 4
 92.198 492.034 151.499 538.051 217.153 538.051 c 4
 312.781 538.051 343.146 450.999 409.264 450.999 c 4
 447.27 450.999 474.649 480.653 508 526 c 4
 561 482 l 4
 530.811 436.285 473.381 375.377 400.536 375.377 c 4
 306.617 375.377 282.907 467.595 212.175 467.595 c 4
 179.423 467.595 145.323 443.982 116 396 c 4
EndSplineSet
EndChar
StartChar: asciicircum
Encoding: 94 94 90
Width: 600
Flags: HMW
TeX: 97 0 0 0
Fore
118 425 m 0
 295 722 l 0
 320 722 l 0
 477 426 l 0
 415 397 l 0
 303 600 l 0
 176 397 l 0
 118 425 l 0
EndSplineSet
EndChar
StartChar: cent
Encoding: 162 162 91
Width: 600
Flags: HMW
TeX: 99 0 0 0
Fore
340 723 m 1
 418 715 l 1
 418.498 710.182 417.21 705.31 415 701 c 0
 413.517 698.108 411.719 695.378 410.403 692.407 c 0
 409.087 689.436 408.425 686.222 408 683 c 2
 395.45 587.77 l 1
 416.48 583.573 436.921 576.784 456 567 c 0
 487.016 551.094 513.954 527.193 533 498 c 1
 482 432 l 1
 479.352 433.845 477.568 436.827 476.976 440 c 0
 476.603 441.998 476.672 444.048 476.795 446.077 c 0
 476.918 448.105 477.101 450.138 476.976 452.166 c 0
 476.85 454.194 476.391 456.211 475.513 458.044 c 0
 474.635 459.877 473.346 461.477 472 463 c 0
 458.597 478.166 442.627 491.053 425 501 c 0
 412.727 507.926 399.68 513.422 386.187 517.48 c 1
 332.752 112.001 l 1
 334 112 l 2
 365.806 112.087 397.503 119.874 426 134 c 0
 447.908 144.86 467.947 159.475 485 177 c 1
 527 121 l 1
 507.369 99.447 483.868 81.444 458 68 c 0
 418.437 47.439 373.585 37.611 329 38 c 0
 327.005 38.0174 325.01 38.0557 323.015 38.115 c 1
 306 -91 l 1
 239 -83 l 1
 255.455 48.3178 l 1
 220.989 57.9103 188.493 74.165 161 97 c 0
 129.385 123.259 104.904 157.742 89.1528 195.702 c 0
 73.4019 233.662 65.9805 274.902 66 316 c 0
 66.0206 359.542 74.4179 403.283 92.421 442.929 c 0
 110.424 482.575 138.538 517.735 174 543 c 0
 217.388 573.912 270.412 589.947 323.67 592.681 c 1
 340 723 l 1
265.07 125.043 m 1
 315.27 525.648 l 1
 278.963 523.335 243.15 510.916 215 488 c 0
 190.918 468.395 173.079 441.651 162.341 412.514 c 0
 151.602 383.377 147.44 352.048 148 321 c 0
 148.56 289.988 153.795 258.925 164.922 229.972 c 0
 176.048 201.019 193.528 174.276 217 154 c 0
 231.25 141.69 247.592 131.999 265.07 125.043 c 1
EndSplineSet
EndChar
StartChar: euro
Encoding: 164 8364 92
Width: 600
Flags: HMW
TeX: 78 0 0 0
Fore
548 665 m 5
 519 586 l 5
 510.733 592.758 515.379 602.068 509.042 609.779 c 4
 507.922 611.142 464.815 661.167 386.755 661.167 c 4
 317.566 661.167 233.594 620.979 199.483 502.334 c 4
 197.686 496.082 195.746 488.698 193.828 480 c 5
 480 480 l 5
 455 413 l 5
 184.084 413 l 5
 182.441 393.403 181.417 370.757 181.417 344.613 c 4
 181.417 336.225 181.561 328.021 181.852 320 c 5
 420 320 l 5
 394 253 l 5
 188.48 253 l 5
 196.603 205.904 211.936 166.8 235.532 134.868 c 4
 276.315 79.6765 335.261 56.791 388.936 56.791 c 4
 435.098 56.791 479.134 73.5085 513 104 c 5
 546 46 l 5
 501.68 7.4161 444.786 -13.1265 384.233 -13.1265 c 4
 290.458 -13.1265 145.304 38.4687 114.986 253 c 5
 48 253 l 5
 63 320 l 5
 109.56 320 l 5
 109.4 326.06 109.319 332.225 109.319 338.496 c 4
 109.319 363.479 110.295 388.448 112.538 413 c 5
 48 413 l 5
 63 480 l 5
 122.297 480 l 5
 130.798 521.099 144.028 559.766 163.557 593.831 c 4
 222.805 697.179 318.974 727.394 391.356 727.394 c 4
 452.52 727.394 507.764 705.737 548 665 c 5
EndSplineSet
EndChar
StartChar: sterling
Encoding: 163 163 93
Width: 600
Flags: HMW
TeX: 115 0 0 0
Fore
494 663 m 1
 443 599 l 1
 433.543 605.934 434.27 615.246 427.512 622.673 c 0
 422.593 628.078 390.006 656.128 341.348 656.128 c 0
 279.173 656.128 217.781 609.4 217.781 512.955 c 0
 217.781 488.175 221.729 463.315 227.168 438 c 1
 342 438 l 1
 342 372 l 1
 242.811 372 l 1
 251.234 336.143 258.537 298.852 258.537 259.182 c 0
 258.537 201.957 243.517 148.5 216 104 c 1
 226.25 105.791 236.644 106.675 247.063 106.675 c 0
 324.103 106.675 372.006 58.9164 438.359 58.9164 c 0
 470.325 58.9164 500.468 70.8547 524 91 c 1
 555 31 l 1
 528.906 10.2532 484.714 -17.1633 434.141 -17.1633 c 0
 360.259 -17.1633 311.803 34.666 227.673 34.666 c 0
 203.994 34.666 159.283 30.2658 85 -9 c 1
 55 57 l 1
 108.912 81.9053 122.949 87.4528 141.287 115.98 c 0
 167.053 156.062 181.214 204.698 181.214 256.851 c 0
 181.214 296.572 172.952 334.482 163.82 372 c 1
 88 372 l 1
 88 438 l 1
 148.325 438 l 1
 143.399 462.328 139.93 486.842 139.93 511.928 c 0
 139.93 641.884 235.856 722.006 343.371 722.006 c 0
 398.585 722.006 452.418 701.138 494 663 c 1
EndSplineSet
EndChar
StartChar: Y
Encoding: 89 89 94
Width: 600
Flags: HMW
TeX: 89 0 0 0
Fore
43 723 m 0
 135 723 l 0
 312 372 l 0
 472 722 l 0
 558 722 l 0
 353 285 l 0
 353 0 l 0
 265 0 l 0
 265 285 l 0
 43 723 l 0
EndSplineSet
EndChar
StartChar: yen
Encoding: 165 165 95
Width: 600
Flags: HMW
TeX: 121 0 0 0
Fore
52 723 m 1
 142 723 l 1
 310 421 l 1
 464 722 l 1
 550 722 l 1
 348 342 l 1
 348 318 l 1
 504 318 l 1
 504 252 l 1
 348 252 l 1
 348 179 l 1
 504 179 l 1
 504 114 l 1
 348 114 l 1
 348 0 l 1
 269 0 l 1
 269 114 l 1
 107 114 l 1
 107 179 l 1
 269 179 l 1
 269 252 l 1
 107 252 l 1
 107 318 l 1
 269 318 l 1
 269 342 l 1
 52 723 l 1
EndSplineSet
EndChar
StartChar: Z
Encoding: 90 90 96
Width: 600
Flags: HMW
TeX: 90 0 0 0
Fore
82 722 m 0
 528 722 l 0
 527 665 l 0
 170 71 l 0
 511 71 l 0
 526.543 71 529.162 78.2618 542.386 78.2618 c 0
 543.596 78.2618 544.804 78.1775 546 78 c 0
 546 -1 l 0
 68 -1 l 0
 68 56 l 0
 432 649 l 0
 82 649 l 0
 82 722 l 0
EndSplineSet
EndChar
StartChar: Q
Encoding: 81 81 97
Width: 600
Flags: HMW
TeX: 81 0 0 0
Fore
300.491 656.024 m 0
 221.775 656.024 122.96 585.888 122.96 373.877 c 0
 122.96 144.877 220.551 63.9921 305.427 63.9921 c 0
 366.012 63.9921 478.121 108.342 478.121 348.259 c 0
 478.121 408.965 473.721 479.175 448.587 540.782 c 0
 413.795 626.06 351.323 656.024 300.491 656.024 c 0
556.015 357.88 m 0
 556.015 294.497 551.45 205.023 513.096 127.795 c 0
 473.409 47.8829 408.85 4.46477 343.087 -7.53645 c 1
 344.188 -44.9827 353.603 -95.0859 427.899 -95.0859 c 0
 453.816 -95.0859 485.178 -90.5919 522 -89 c 1
 520 -168.004 l 1
 512.326 -167.938 504.652 -167.912 496.978 -167.912 c 2
 450.82 -168.004 l 2
 393.198 -168.004 271.768 -170.505 271.768 -14.2498 c 0
 271.768 -12.2633 271.785 -10.3097 271.816 -8.40882 c 1
 166.796 8.05515 43.9994 105.42 43.9994 361.966 c 0
 43.9994 646.356 196.451 730 303.805 730 c 0
 383.023 730 465.547 686.019 512.626 592.269 c 0
 551.227 515.402 556.015 426.335 556.015 357.88 c 0
EndSplineSet
EndChar
StartChar: thorn
Encoding: 254 254 98
Width: 600
Flags: HMW
TeX: 116 0 0 0
Fore
80 770 m 0
 172 770 l 0
 172.149 765.595 171.377 761.187 170 757 c 0
 168.65 752.894 166.784 748.965 165.559 744.82 c 0
 164.334 740.674 164 736.323 164 732 c 0
 164 448 l 0
 181.56 476.251 206.402 499.934 235.461 516.121 c 0
 264.521 532.308 297.736 540.967 331 541 c 0
 361.992 541.031 392.958 533.57 420.56 519.475 c 0
 448.162 505.38 472.275 484.696 491 460 c 0
 511.472 433 525.499 401.435 534.105 368.663 c 0
 542.71 335.89 546.194 301.883 546 268 c 0
 545.627 202.905 532.033 136.214 496 82 c 0
 478.997 56.418 456.965 34.079 431.082 17.538 c 0
 405.199 0.998 375.535 -9.667 345 -13 c 0
 310.485 -16.767 274.962 -11.092 243.419 3.418 c 0
 211.877 17.929 184.427 41.224 165 70 c 0
 165 -193 l 0
 80 -193 l 0
 80 770 l 0
317 469 m 0
 290.127 471.984 262.369 467.495 238.089 455.597 c 0
 213.809 443.699 193.084 424.188 181 400 c 0
 170.622 379.227 166.727 355.803 165.117 332.638 c 0
 163.507 309.473 163.879 286.221 164 263 c 0
 164.126 238.805 163.949 214.566 166.039 190.461 c 0
 168.13 166.356 172.885 141.944 185 121 c 0
 199.406 96.096 223.786 77.653 250.928 68.114 c 0
 278.07 58.574 307.978 57.484 336 64 c 0
 371.446 72.242 403.904 93.347 425 123 c 0
 439.551 143.453 448.661 167.443 453.614 192.05 c 0
 458.566 216.658 459.749 241.91 459 267 c 0
 458.219 293.173 455.367 319.383 448.763 344.721 c 0
 442.159 370.059 431.37 394.564 415 415 c 0
 391.065 444.879 355.049 464.775 317 469 c 0
EndSplineSet
EndChar
StartChar: plusminus
Encoding: 177 177 100
Width: 600
Flags: HMW
TeX: 112 0 0 0
Fore
63 93 m 4
 540 93 l 4
 540 20 l 4
 63 20 l 4
 63 93 l 4
EndSplineSet
Refer: 28 43 N 1 0 0 1 0 60 2
EndChar
StartChar: R
Encoding: 82 82 101
Width: 600
Flags: HMW
TeX: 82 0 0 0
Fore
75 722 m 0
 288 722 l 0
 334.667 722 380.248 720.95 425.988 697.719 c 0
 492.448 663.965 528.143 596.481 528.143 523.978 c 0
 528.143 428.394 468.499 345.903 381 322 c 0
 548 0 l 0
 457 0 l 0
 297 319 l 0
 157 319 l 0
 157 0 l 0
 75 0 l 0
 75 722 l 0
157 646 m 0
 157 390 l 0
 297 390 l 0
 325.466 390 352.993 390.678 380.831 404.763 c 0
 422.659 425.926 445.003 468.944 445.003 514.986 c 0
 445.003 561.985 421.629 607.921 376.619 630.5 c 0
 347.19 645.263 318.165 646 288 646 c 0
 157 646 l 0
EndSplineSet
EndChar
StartChar: X
Encoding: 88 88 102
Width: 600
Flags: HMW
TeX: 88 0 0 0
Fore
449 723 m 1
 530 723 l 1
 347.292 370.084 l 1
 552 0 l 1
 461 0 l 1
 300.474 286.156 l 1
 146 0 l 1
 57 0 l 1
 254.441 368.201 l 1
 61 723 l 1
 148 723 l 1
 300.153 448.564 l 1
 449 723 l 1
EndSplineSet
EndChar
StartChar: six
Encoding: 54 54 103
Width: 600
Flags: HMW
TeX: 115 0 0 0
Fore
342.659 730.138 m 0
 401.412 730.138 458.584 705.809 501 664 c 0
 445 602 l 0
 434.368 609.82 434.59 620.671 427.517 628.077 c 0
 423.092 632.711 391.165 658.246 343.16 658.246 c 0
 291.254 658.246 172.411 625.987 168 379 c 0
 199.898 432.999 258.013 466.137 321.005 466.137 c 0
 423.075 466.137 519.08 379.808 519.08 229.538 c 0
 519.08 80.8581 422.752 -12.0026 312.997 -12.0026 c 0
 248.704 -12.0026 184.458 20.3794 142.414 83.8806 c 0
 96.0423 153.919 87.8103 244.182 87.8103 328.725 c 0
 87.8103 398.015 94.4787 482.075 118.688 550.855 c 0
 163.122 677.091 256.592 730.138 342.659 730.138 c 0
313.429 395.091 m 0
 259.837 395.091 204.549 357.227 172 298 c 0
 171.416 289.759 171.12 281.5 171.12 273.239 c 0
 171.12 144.944 237.139 59.9447 316.419 59.9447 c 0
 377.654 59.9447 440.168 112.511 440.168 225.41 c 0
 440.168 349.842 371.467 395.091 313.429 395.091 c 0
EndSplineSet
EndChar
StartChar: nine
Encoding: 57 57 104
Width: 600
Flags: HMW
TeX: 110 0 0 0
Fore
261.675 -12.1561 m 0
 161.827 -12.1561 102 54 102 54 c 0
 158 116 l 0
 170.321 108.179 167.108 95.6999 176.888 88.125 c 0
 177.128 87.939 212.027 61.8787 263.838 61.8787 c 0
 315.736 61.8787 375.697 88.07 406.577 161.072 c 0
 414.19 179.068 432.572 227.741 436 340 c 0
 402.346 291.195 346.701 261.958 287.116 261.958 c 0
 182.228 261.958 88.9944 351.151 88.9944 489.856 c 0
 88.9944 629.773 183.329 729 295.648 729 c 0
 371.017 729 454.143 682.757 491.757 572.33 c 0
 508.564 522.989 516.664 460.639 516.664 370.261 c 0
 516.664 252.09 498.421 189.45 485.749 156.035 c 0
 442.004 40.6809 349.796 -12.1561 261.675 -12.1561 c 0
294.989 332.729 m 0
 346.985 332.729 400.082 367.207 432 421 c 0
 432.949 431.8 433.436 442.636 433.436 453.477 c 0
 433.436 590.373 363.394 657.043 293.961 657.043 c 0
 228.457 657.043 167.969 598.264 167.969 493.195 c 0
 167.969 385.709 230.618 332.729 294.989 332.729 c 0
EndSplineSet
EndChar
StartChar: seven
Encoding: 55 55 105
Width: 600
Flags: HMW
TeX: 115 0 0 0
Fore
101 722 m 0
 510 722 l 0
 510 677 l 0
 461.138 565.327 415.446 452.266 373 338 c 0
 331.553 226.425 293.2 113.7 258 0 c 0
 167 0 l 0
 209.792 129.784 255.811 258.503 305 386 c 0
 338.534 472.918 373.54 559.268 410 645 c 0
 101 645 l 0
 101 722 l 0
EndSplineSet
EndChar
StartChar: W
Encoding: 87 87 106
Width: 600
Flags: HMW
TeX: 87 0 0 0
Fore
30 722 m 0
 105 722 l 0
 183 234 l 0
 299 669 l 0
 324 669 l 0
 441 232 l 0
 507 722 l 0
 575 722 l 0
 461 -5 l 0
 429 -5 l 0
 305 472 l 0
 179 -5 l 0
 146 -5 l 0
 30 722 l 0
EndSplineSet
EndChar
StartChar: acute
Encoding: 260 180 107
Width: 600
Flags: HMW
TeX: 78 0 0 0
Fore
348 810 m 4
 421 761 l 4
 304 605 l 4
 246 640 l 4
 348 810 l 4
EndSplineSet
EndChar
StartChar: oslash
Encoding: 248 248 123
Width: 600
Flags: HMW
TeX: 111 0 0 0
Fore
441 601 m 1
 503 568 l 1
 455.056 480.556 l 1
 461.024 475.032 466.687 469.174 472 463 c 0
 516.812 410.931 536.405 340.679 538 272 c 0
 539.571 204.34 524.027 134.573 484 80 c 0
 462.868 51.1885 435.07 27.2432 403.241 11.0068 c 0
 371.412 -5.22754 335.73 -13.7773 300 -14 c 0
 264.394 -14.2217 228.934 -5.78595 196.922 9.75479 c 1
 151 -74 l 1
 91 -43 l 1
 140.46 48.007 l 1
 133.947 53.9693 127.777 60.3082 122 67 c 0
 74.4336 122.102 53.9562 197.236 56 270 c 0
 58.0558 343.189 82.9795 417.485 134 470 c 0
 177.998 515.286 240.865 541.771 304 541 c 0
 335.992 540.609 367.777 533.093 396.754 519.587 c 1
 441 601 l 1
302 470 m 0
 280.876 470.833 259.595 466.536 240.353 457.779 c 0
 221.111 449.023 203.96 435.876 190 420 c 0
 172.337 399.912 159.796 375.616 151.825 350.083 c 0
 143.855 324.549 140.245 297.748 140 271 c 0
 139.527 219.32 151.201 166.227 181 124 c 2
 181.431 123.392 l 1
 361.013 453.823 l 1
 342.868 463.52 322.556 469.189 302 470 c 0
414.169 405.985 m 1
 233.232 75.9801 l 1
 233.393 75.8896 l 2
 254.23 64.1709 278.095 57.7471 302 58 c 0
 326.367 58.2578 350.562 65.4756 371.309 78.2598 c 0
 392.055 91.0439 409.274 109.219 422 130 c 0
 447.344 171.387 455.429 221.49 454 270 c 0
 452.589 317.875 441.682 366.88 414.169 405.985 c 1
EndSplineSet
EndChar
StartChar: dotlessi
Encoding: 272 305 136
Width: 600
Flags: HMW
TeX: 78 0 0 0
Fore
133 530 m 0
 345 530 l 0
 345 67 l 0
 469 67 l 0
 469 0 l 0
 126 0 l 0
 126 67 l 0
 261 67 l 0
 261 462 l 0
 133 462 l 0
 133 530 l 0
EndSplineSet
EndChar
StartChar: circumflex
Encoding: 261 710 137
Width: 600
Flags: HMW
TeX: 78 0 0 0
Fore
165 631 m 0
 294 794 l 0
 319 794 l 0
 447 630 l 0
 393 590 l 0
 303 709 l 0
 209 591 l 0
 165 631 l 0
EndSplineSet
EndChar
StartChar: tilde
Encoding: 262 732 138
Width: 600
Flags: HMW
TeX: 78 0 0 0
Fore
167 646 m 0
 115 683 l 0
 157.86 750.837 200.854 783.268 246.029 783.268 c 0
 292.862 783.268 323.97 749.067 338.861 733.55 c 0
 357.642 713.979 375.041 696.93 396.658 696.93 c 0
 425.237 696.93 438.799 723.991 464 758 c 0
 507 712 l 0
 466.944 662.14 435.39 629.754 392.65 629.754 c 0
 325.264 629.754 293.884 717.432 242.844 717.432 c 0
 212.153 717.432 194.763 690.786 167 646 c 0
EndSplineSet
EndChar
StartChar: dieresis
Encoding: 266 168 139
Width: 600
Flags: HMW
TeX: 78 0 0 0
Fore
257.019 711.498 m 0
 257.019 679.211 230.789 652.981 198.502 652.981 c 0
 166.212 652.981 139.981 679.209 139.981 711.499 c 0
 139.981 743.789 166.21 770.019 198.5 770.019 c 0
 230.79 770.019 257.019 743.789 257.019 711.498 c 0
463.002 711.512 m 0
 463.002 679.168 436.956 652.991 405.005 652.991 c 0
 373.061 652.991 346.998 679.155 346.998 711.514 c 0
 346.998 743.862 373.052 770.035 405.008 770.035 c 0
 436.936 770.035 463.002 743.877 463.002 711.512 c 0
EndSplineSet
EndChar
StartChar: germandbls
Encoding: 223 223 144
Width: 600
Flags: HMW
TeX: 103 0 0 0
Fore
74 0 m 4
 74 490 l 4
 74 542.807 74.667 596.235 98.2086 649.711 c 4
 133.73 730.4 208.298 775.004 287.299 775.004 c 4
 402.905 775.004 497.21 681.294 497.21 571.108 c 4
 497.21 504.487 461.9 445.294 405 416 c 4
 491.891 389.079 548.006 305.6 548.006 209.32 c 4
 548.006 83.4294 454.191 -12.0295 335.412 -12.0295 c 4
 292.776 -12.0295 250.921 0.470711 215 24 c 4
 256 89 l 4
 278.149 71.5086 305.639 61.9655 334.044 61.9655 c 4
 407.901 61.9655 471.132 125.491 471.132 209.399 c 4
 471.132 270.281 438.461 323.526 394.789 350.882 c 4
 362.072 371.375 330.752 374 293 374 c 4
 258 374 l 4
 258 440 l 4
 291 440 l 4
 308.302 440 324.828 440.514 344.201 449.183 c 4
 387.876 468.726 418.115 518.564 418.115 573.125 c 4
 418.115 649.497 360.647 708.194 291.766 708.194 c 4
 253.833 708.194 213.869 689.799 186.719 650.367 c 4
 153.729 602.454 153 543.204 153 492 c 4
 153 0 l 4
 74 0 l 4
EndSplineSet
EndChar
StartChar: paragraph
Encoding: 182 182 145
Width: 600
Flags: HMW
TeX: 112 0 0 0
Fore
515 771 m 0
 515 -79 l 0
 448 -79 l 0
 448 705 l 0
 360 705 l 0
 360 -79 l 0
 291 -79 l 0
 291 373 l 0
 277.531 373.882 264.135 375.889 251 379 c 0
 206.745 389.48 165.297 412.752 134.749 446.445 c 0
 104.2 480.137 85.1564 524.535 84 570 c 0
 83.1597 603.036 91.7054 636.244 108.315 664.813 c 0
 124.925 693.382 149.42 717.119 177.855 733.958 c 0
 206.29 750.797 238.438 760.77 271.101 765.797 c 0
 303.763 770.824 336.953 771 370 771 c 0
 515 771 l 0
EndSplineSet
EndChar
StartChar: section
Encoding: 167 167 146
Width: 600
Flags: HMW
TeX: 115 0 0 0
Fore
488 676 m 1
 423 618 l 1
 414.502 624.421 416.792 633.708 413.888 641.763 c 0
 404.459 667.917 369.872 709.915 308.352 709.915 c 0
 247.31 709.915 202.994 669.159 202.994 620.922 c 0
 202.994 597.432 213.725 561.524 264.348 534.753 c 0
 297.607 517.164 341.067 507.397 387.737 485.112 c 0
 468.614 446.493 494.176 395.665 494.176 353.922 c 0
 494.176 305.481 458.969 262.529 408.539 241.879 c 1
 459.313 207.384 483.175 156.542 483.175 107.276 c 0
 483.175 16.9904 402.922 -63.0207 285.774 -63.0207 c 0
 208.624 -63.0207 133.499 -27.5045 85 36 c 1
 146 107 l 1
 154.994 103.32 153.114 93.2219 155.624 86.7075 c 0
 159.14 77.5825 198.684 13.7598 286.023 13.7598 c 0
 356.942 13.7598 400.23 57.0391 400.23 105.026 c 0
 400.23 132.111 386.388 163.982 346.982 187.299 c 0
 298.949 215.721 233.162 219.874 175.365 254.027 c 0
 123.913 284.431 101.679 326.186 101.679 366.086 c 0
 101.679 418.429 140.913 463.115 196.205 482.822 c 1
 140.944 517.145 118.9 567.71 118.9 613.632 c 0
 118.9 701.981 199.381 778.269 307.936 778.269 c 0
 384.595 778.269 452.277 738.832 488 676 c 1
238.744 461.796 m 1
 207.924 451.724 185.96 423.141 185.96 389.457 c 0
 185.96 363.602 199.372 327.898 248.47 303.876 c 0
 283.42 286.776 323.54 281.479 365.239 264.586 c 1
 390.576 277.358 407.453 303.587 407.453 333.72 c 0
 407.453 360.138 394.181 398.165 340.303 424.753 c 0
 310.54 439.44 274.629 447.456 238.744 461.796 c 1
EndSplineSet
EndChar
StartChar: copyright
Encoding: 169 169 147
Width: 600
Flags: HMW
TeX: 99 0 0 0
Fore
143 327 m 0
 144.627 366.962 160.034 406.463 187 436 c 0
 217.676 469.6 262.527 489.528 308 491 c 0
 340.27 492.044 373.065 483.802 400 466 c 0
 428.596 447.1 449.891 417.304 458 384 c 0
 398 361 l 0
 396.631 362.659 395.593 364.588 394.941 366.639 c 0
 394.289 368.689 394.032 370.849 394 373 c 0
 393.959 375.719 394.244 378.442 394.058 381.154 c 0
 393.872 383.867 393.092 386.51 392 389 c 0
 385.924 402.852 375.152 414.53 362 422 c 0
 346.387 430.868 327.934 433.88 310 433 c 0
 296.568 432.341 283.217 429.594 270.706 424.662 c 0
 258.194 419.73 246.546 412.473 237 403 c 0
 226.999 393.076 219.431 380.784 214.683 367.519 c 0
 209.935 354.253 207.901 340.089 208 326 c 0
 208.205 296.731 217.222 267.252 235 244 c 0
 244.362 231.754 256.213 221.368 269.778 214.046 c 0
 283.343 206.725 298.594 202.51 314 202 c 0
 334.036 201.337 354.227 207.021 371 218 c 0
 384.762 227.008 396.217 239.51 404 254 c 0
 455 220 l 0
 441.67 199.794 424.222 182.306 404 169 c 0
 377.671 151.677 346.511 141.569 315 141 c 0
 289.177 140.534 263.284 146.475 240.172 158.002 c 0
 217.06 169.53 196.765 186.543 181 207 c 0
 154.866 240.911 141.259 284.223 143 327 c 0
587 315 m 0
 586.244 241.259 558.648 167.697 509.071 113.105 c 0
 459.493 58.512 387.713 24.149 314 22 c 0
 235.211 19.703 156.633 54.557 103.599 112.871 c 0
 50.5652 171.184 22.8664 251.239 26 330 c 0
 28.9452 404.024 59.0334 477.074 110.741 530.126 c 0
 162.449 583.178 235.923 614.908 310 614 c 0
 385.432 613.075 459.357 578.282 509.885 522.267 c 0
 560.414 466.252 587.773 390.434 587 315 c 0
308 565 m 0
 247.618 564.96 188.224 537.866 146.837 493.898 c 0
 105.451 449.931 81.7074 390.322 79 330 c 0
 76.0727 264.779 97.8015 198.219 140.839 149.127 c 0
 183.877 100.034 248.741 70.092 314 72 c 0
 375.015 73.784 434.203 103.126 474.494 148.979 c 0
 514.786 194.833 536.624 255.96 537 317 c 0
 537.386 379.555 515.192 442.489 473.599 489.215 c 0
 432.007 535.942 370.557 565.042 308 565 c 0
EndSplineSet
EndChar
StartChar: registered
Encoding: 174 174 148
Width: 600
Flags: HMW
TeX: 114 0 0 0
Fore
587 315 m 0
 586.244 241.259 558.648 167.697 509.071 113.105 c 0
 459.493 58.512 387.713 24.149 314 22 c 0
 235.211 19.703 156.633 54.557 103.599 112.871 c 0
 50.5652 171.184 22.8664 251.239 26 330 c 0
 28.9452 404.024 59.0334 477.074 110.741 530.126 c 0
 162.449 583.178 235.923 614.908 310 614 c 0
 385.432 613.075 459.357 578.282 509.885 522.267 c 0
 560.414 466.252 587.773 390.434 587 315 c 0
308 565 m 0
 247.618 564.96 188.224 537.866 146.837 493.898 c 0
 105.451 449.931 81.7074 390.322 79 330 c 0
 76.0727 264.779 97.8015 198.219 140.839 149.127 c 0
 183.877 100.034 248.741 70.092 314 72 c 0
 375.015 73.784 434.203 103.126 474.494 148.979 c 0
 514.786 194.833 536.624 255.96 537 317 c 0
 537.386 379.555 515.192 442.489 473.599 489.215 c 0
 432.007 535.942 370.557 565.042 308 565 c 0
190 154 m 0
 190 492 l 0
 299 492 l 0
 315.081 492 331.235 491.894 347.115 489.365 c 0
 362.996 486.836 378.597 481.851 392.389 473.584 c 0
 406.182 465.316 418.066 453.771 426.274 439.942 c 0
 434.481 426.114 438.952 410.081 439 394 c 0
 439.071 370.39 429.434 346.951 413 330 c 0
 401.527 318.166 386.87 309.451 371 305 c 0
 446 160 l 0
 391 152 l 0
 319 297 l 0
 243 297 l 0
 243 154 l 0
 190 154 l 0
243 445 m 0
 243 343 l 0
 303 343 l 0
 321.3 343 340.287 343.201 356.822 351.044 c 0
 365.089 354.965 372.538 360.784 377.81 368.264 c 0
 383.081 375.743 386.067 384.85 386 394 c 0
 385.931 403.363 382.664 412.626 377.086 420.147 c 0
 371.508 427.668 363.739 433.424 355.197 437.26 c 0
 338.113 444.931 318.727 445 300 445 c 0
 243 445 l 0
EndSplineSet
EndChar
StartChar: uni00B9
Encoding: 185 185 149
Width: 600
Flags: HMW
TeX: 117 0 0 0
Fore
355 733 m 0
 355 356 l 0
 463 356 l 0
 463 293 l 0
 168 293 l 0
 168 356 l 0
 283 356 l 0
 283 641 l 0
 172 613 l 0
 153 649 l 0
 306 733 l 0
 355 733 l 0
EndSplineSet
EndChar
StartChar: guilsinglleft
Encoding: 273 8249 150
Width: 600
Flags: HMW
TeX: 78 0 0 0
Fore
178 293 m 0
 354 464 l 0
 399 416 l 0
 259 279 l 0
 407 117 l 0
 361 71 l 0
 178 266 l 0
 178 293 l 0
EndSplineSet
EndChar
StartChar: logicalnot
Encoding: 172 172 154
Width: 600
Flags: HMW
TeX: 108 0 0 0
Fore
116 402 m 0
 490 402 l 0
 490 182 l 0
 416 182 l 0
 416 329 l 0
 116 329 l 0
 116 402 l 0
EndSplineSet
EndChar
StartChar: degree
Encoding: 176 176 156
Width: 600
Flags: HMW
TeX: 100 0 0 0
Fore
308 740 m 0
 348.669 739.597 388.967 722.72 417.679 693.913 c 0
 446.391 665.107 463.119 624.671 463 584 c 0
 462.883 544.147 446.62 504.598 418.767 476.094 c 0
 390.914 447.59 351.829 430.404 312 429 c 0
 269.323 427.495 226.273 444.234 195.934 474.286 c 0
 165.595 504.338 148.472 547.324 150 590 c 0
 151.438 630.164 169.284 669.471 198.473 697.097 c 0
 227.662 724.723 267.813 740.398 308 740 c 0
308 679 m 0
 284.743 679.106 261.831 668.587 246.055 651.499 c 0
 230.278 634.412 221.493 611.252 221 588 c 0
 220.478 563.385 229.276 538.481 245.969 520.383 c 0
 262.663 502.285 287.417 491.641 312 493 c 0
 334.09 494.221 355.326 504.975 370.046 521.491 c 0
 384.765 538.008 393.111 559.894 394 582 c 0
 394.969 606.099 387.049 630.64 371.386 648.979 c 0
 355.723 667.319 332.118 678.89 308 679 c 0
EndSplineSet
EndChar
StartChar: uni00B2
Encoding: 178 178 157
Width: 600
Flags: HMW
TeX: 117 0 0 0
Fore
139 642 m 0
 158.979 676.751 190.36 704.744 227 721 c 0
 256.071 733.898 288.241 739.679 320 738 c 0
 355.558 736.12 391.195 724.6 418.632 701.903 c 0
 432.35 690.555 443.854 676.462 451.767 660.513 c 0
 459.68 644.565 463.931 626.803 464 609 c 0
 464.097 583.866 455.719 559.06 442 538 c 0
 428.299 516.968 409.691 499.567 390 484 c 0
 366.986 465.805 342.465 449.609 319 432 c 0
 288.747 409.297 260.222 384.187 235 356 c 0
 446 356 l 0
 447.426 356 448.86 356.026 450.261 356.292 c 0
 451.662 356.557 453.017 357.056 454.265 357.747 c 0
 456.759 359.13 458.762 361.232 461 363 c 0
 462.824 364.44 464.873 365.646 467.125 366.22 c 0
 469.378 366.794 471.794 366.732 474 366 c 0
 474 293 l 4
 150 293 l 0
 150 344 l 0
 188.535 397.291 237.158 442.536 289 483 c 0
 314.964 503.266 342.412 522.029 365 546 c 0
 373.481 555 381.107 564.935 386.456 576.085 c 0
 391.805 587.235 394.739 599.656 394 612 c 0
 392.94 629.692 383.983 646.578 370.48 658.058 c 0
 356.976 669.537 339.592 675.848 322 678 c 0
 300.058 680.684 277.477 677.327 257 669 c 0
 236.912 660.832 218.869 647.671 205 631 c 0
 203.415 629.095 201.945 627.081 200.806 624.879 c 0
 199.668 622.677 198.823 620.338 198 618 c 0
 196.559 613.908 195.022 609.838 193 606 c 0
 139 642 l 0
EndSplineSet
EndChar
StartChar: eth
Encoding: 240 240 158
Width: 600
Flags: HMW
TeX: 101 0 0 0
Fore
307 470 m 0
 264.849 470.527 223.197 451.336 195 420 c 0
 177.087 400.094 164.394 375.802 156.469 350.222 c 0
 148.545 324.643 145.13 297.779 145 271 c 0
 144.749 219.33 156.208 166.217 186 124 c 0
 199.779 104.474 217.58 87.657 238.422 75.964 c 0
 259.264 64.271 283.102 57.837 307 58 c 0
 331.4 58.167 355.679 65.2502 376.475 78.013 c 0
 397.272 90.7762 414.468 109.063 427 130 c 0
 451.881 171.568 459.117 221.554 459 270 c 0
 458.943 293.538 456.967 317.142 451.807 340.107 c 0
 446.647 363.072 438.079 385.431 425 405 c 0
 412.013 424.432 394.547 440.931 374.102 452.258 c 0
 353.657 463.585 330.371 469.708 307 470 c 0
309 541 m 0
 357.228 538.272 404.21 516.471 437 481 c 1
 417.019 531.687 388.882 579.148 354 621 c 0
 348.66 627.408 343.16 633.682 337.51 639.817 c 1
 190 598 l 1
 169 653 l 1
 289.198 685.849 l 1
 253.401 715.772 213.541 740.839 171 760 c 1
 265 779 l 1
 301.089 758.68 334.987 734.431 365.83 706.792 c 1
 491 741 l 1
 511 689 l 1
 411.524 660.8 l 1
 417.52 654.013 423.348 647.078 429 640 c 0
 468.122 591.003 498.372 534.869 517 475 c 0
 537.357 409.574 545.022 340.49 543 272 c 0
 541.009 204.574 527.944 135.079 489 80 c 0
 468.315 50.745 440.626 26.4032 408.691 10.157 c 0
 376.757 -6.0888 340.829 -14.259 305 -14 c 0
 237.906 -13.515 171.949 17.185 127 67 c 0
 77.8438 121.478 54.2921 196.673 57 270 c 0
 59.718 343.6 87.8558 417.003 139 470 c 0
 160.997 492.794 187.245 511.617 216.339 524.147 c 0
 245.432 536.677 277.374 542.789 309 541 c 0
EndSplineSet
EndChar
StartChar: Eth
Encoding: 208 208 159
Width: 600
Flags: HMW
TeX: 69 0 0 0
Fore
101 722 m 0
 263 722 l 0
 302.443 722 342.684 719.874 379.337 705.301 c 0
 415.99 690.729 447.754 665.111 472 634 c 0
 499.974 598.106 518.745 555.658 530.988 511.829 c 0
 543.23 467.999 549.133 422.499 550 377 c 0
 551.094 319.559 544.258 261.729 526.994 206.933 c 0
 509.73 152.136 481.315 99.861 439 61 c 0
 413.773 37.832 383.53 20.013 350.735 10.132 c 0
 317.939 0.252 283.252 -1 249 -1 c 0
 101 -1 l 0
 101 722 l 0
176 654 m 0
 176 66 l 0
 245 66 l 0
 270.182 66 295.675 66.907 319.816 74.074 c 0
 343.957 81.24 366.272 94.166 385 111 c 0
 420.15 142.594 442.737 186.3 455.878 231.699 c 0
 469.018 277.097 473.415 324.759 472 372 c 0
 470.822 411.333 465.615 450.628 455.196 488.574 c 0
 444.777 526.52 428.968 563.585 404 594 c 0
 386.618 615.174 364.369 632.63 338.845 642.58 c 0
 313.321 652.53 285.395 654 258 654 c 0
 176 654 l 0
45 416 m 0
 297 416 l 0
 297 349 l 0
 45 349 l 0
 45 416 l 0
EndSplineSet
EndChar
StartChar: Thorn
Encoding: 222 222 160
Width: 600
Flags: HMW
TeX: 84 0 0 0
Fore
78 722 m 0
 169 722 l 0
 169.784 719.693 169.977 717.193 169.591 714.787 c 0
 169.205 712.382 168.239 710.098 167 708 c 0
 165.325 705.164 163.185 702.6 161.782 699.621 c 0
 161.08 698.131 160.571 696.549 160.299 694.925 c 0
 160.027 693.301 160 691.647 160 690 c 0
 160 586 l 0
 298 586 l 0
 328.035 586 358.337 585.481 387.587 578.659 c 0
 416.837 571.836 444.757 558.768 467.875 539.593 c 0
 490.992 520.418 509.141 495.443 520.934 467.82 c 0
 532.727 440.197 538.353 410.033 538 380 c 0
 537.659 351.054 531.752 322.103 519.999 295.649 c 0
 508.245 269.195 490.474 245.35 468.016 227.084 c 0
 445.558 208.819 418.578 196.419 390.362 189.952 c 0
 362.145 183.485 332.948 183 304 183 c 0
 160 183 l 0
 160 0 l 0
 78 0 l 0
 78 722 l 0
160 510 m 0
 160 254 l 0
 307 254 l 0
 325.284 254 343.722 254.295 361.557 258.323 c 0
 379.392 262.352 396.472 270.088 410.719 281.548 c 0
 424.966 293.008 436.27 308.019 443.722 324.715 c 0
 451.175 341.412 454.874 359.716 455 378 c 0
 455.134 397.443 451.241 416.942 443.336 434.705 c 0
 435.432 452.469 423.407 468.43 408.266 480.627 c 0
 393.124 492.824 374.973 501.075 356.012 505.377 c 0
 337.051 509.679 317.443 510 298 510 c 0
 160 510 l 0
EndSplineSet
EndChar
StartChar: ring
Encoding: 268 730 161
Width: 600
Flags: HMW
TeX: 78 0 0 0
Fore
308 799 m 0
 334.897 798.737 361.679 788.286 381.24 769.823 c 0
 400.8 751.36 412.723 724.897 413 698 c 0
 413.277 671.097 401.893 644.384 382.692 625.539 c 0
 363.491 606.693 336.894 595.742 310 595 c 0
 281.595 594.216 252.911 604.863 232.343 624.47 c 0
 211.775 644.077 199.854 672.607 201 701 c 0
 202.079 727.728 214.635 753.686 234.528 771.569 c 0
 254.422 789.452 281.252 799.261 308 799 c 0
307 751 m 0
 294.425 750.706 282.222 744.702 273.817 735.344 c 0
 265.411 725.987 260.666 713.561 260 701 c 0
 259.244 686.749 263.752 672.116 273.077 661.314 c 0
 277.74 655.912 283.577 651.508 290.116 648.652 c 0
 296.655 645.796 303.881 644.511 311 645 c 0
 323.395 645.851 335.179 652.229 343.189 661.726 c 0
 351.199 671.223 355.58 683.583 356 696 c 0
 356.465 709.741 352.068 723.743 343.189 734.241 c 0
 338.75 739.49 333.214 743.827 326.992 746.75 c 0
 320.77 749.673 313.872 751.161 307 751 c 0
EndSplineSet
EndChar
StartChar: circumflex.cap
Encoding: 275 -1 190
Width: 600
Flags: HMW
TeX: 78 0 0 0
Fore
142 659 m 0
 294 774 l 0
 319 774 l 0
 462 661 l 0
 424 617 l 0
 304 699 l 0
 175 620 l 0
 142 659 l 0
EndSplineSet
EndChar
StartChar: ae
Encoding: 230 230 192
Width: 600
Flags: HMW
TeX: 97 0 0 0
Fore
46 477 m 0
 60.8808 495.658 79.7717 511.095 101 522 c 0
 124.136 533.885 149.996 540.424 176 541 c 0
 204.905 541.641 234.141 534.763 259 520 c 0
 279.704 507.705 297.173 489.975 309 469 c 0
 321.285 490.24 338.982 508.338 360 521 c 0
 380.183 533.159 403.449 540.266 427 541 c 0
 464.553 542.17 502.073 526.191 528 499 c 0
 550.978 474.902 564.765 443.129 571.374 410.494 c 0
 577.984 377.859 578 344.297 578 311 c 0
 578 267 l 0
 337 257 l 0
 337 203 l 0
 337 184.821 337.411 166.481 341.634 148.799 c 0
 345.857 131.117 353.731 114.265 365 100 c 0
 386.487 72.801 420.342 55.534 455 55 c 0
 474.897 54.693 494.904 59.817 512 70 c 0
 523.633 76.929 533.894 86.154 542 97 c 0
 583 49 l 0
 550.855 10.453 501.191 -12.874 451 -13 c 0
 422.044 -13.073 393.1 -5.701 367.706 8.213 c 0
 342.312 22.128 320.522 42.556 305 67 c 0
 293.35 44.006 275.489 24.198 253.823 10.232 c 0
 232.158 -3.734 206.75 -11.818 181 -13 c 0
 140.696 -14.85 100.003 0.661 70.7275 28.424 c 0
 41.4522 56.187 23.8271 95.695 22 136 c 0
 19.8833 182.695 39.1707 229.634 72.4623 262.446 c 0
 105.754 295.257 151.623 313.16 198 319 c 0
 211.931 320.754 225.97 321.46 240 322 c 0
 266 323 l 0
 266 353 l 0
 266 371.192 265.436 389.625 260.219 407.053 c 0
 255.002 424.481 245.386 440.681 232 453 c 0
 217.303 466.526 197.955 475.117 178 476 c 0
 161.741 476.719 145.456 472.477 131 465 c 0
 113.422 455.909 98.3003 442.247 87 426 c 0
 46 477 l 0
266 254 m 0
 241 253 l 0
 226.638 252.426 212.244 251.931 198 250 c 0
 172.162 246.497 146.51 237.104 127.413 219.352 c 0
 108.315 201.6 96.5279 176.069 96 150 c 0
 95.5335 126.964 103.789 103.75 119.151 86.579 c 0
 134.514 69.408 156.968 58.62 180 58 c 0
 193.439 57.638 206.962 60.65 218.955 66.725 c 0
 230.948 72.8 241.383 81.922 249 93 c 0
 260.352 109.509 264.67 129.898 265.781 149.903 c 0
 266.893 169.907 266 189.965 266 210 c 0
 266 254 l 0
337 323 m 0
 511 330 l 0
 511 353 l 0
 511 369.288 510.768 385.692 507.487 401.646 c 0
 504.206 417.6 497.931 433.089 488 446 c 0
 480.604 455.615 471.177 463.745 460.291 469.097 c 0
 449.405 474.449 437.096 476.909 425 476 c 0
 414.653 475.222 404.54 472.032 395.408 467.104 c 0
 386.277 462.175 378.1 455.567 371 448 c 0
 358.064 434.214 348.605 417.261 343.195 399.147 c 0
 337.785 381.033 337 361.904 337 343 c 0
 337 323 l 0
EndSplineSet
EndChar
StartChar: oe
Encoding: 189 339 193
Width: 600
Flags: HMW
TeX: 111 0 0 0
Fore
33 404 m 0
 44.1927 439.672 63.5465 473.231 91.4084 498.16 c 0
 119.27 523.09 155.628 538.946 193 540 c 0
 219.559 540.749 246.395 533.963 269 520 c 0
 282.933 511.394 295.225 500.139 305 487 c 0
 315.59 499.203 328.134 509.706 342 518 c 0
 367.458 533.227 397.349 540.896 427 540 c 0
 463.709 538.891 500.08 524.017 526 498 c 0
 540.203 483.744 551.22 466.455 558.978 447.887 c 0
 566.735 429.318 571.311 409.535 573.969 389.588 c 0
 579.286 349.693 578 309.248 578 269 c 0
 578 256 l 0
 314 256 l 0
 314.178 234.654 314.605 213.301 316 192 c 0
 317.095 175.281 318.865 158.534 323.011 142.3 c 0
 327.157 126.067 333.883 110.355 344 97 c 0
 356.512 80.485 374.135 68.03 393.678 61.148 c 0
 413.221 54.265 434.421 52.593 455 55 c 0
 475.041 57.344 494.701 63.612 512 74 c 0
 523.204 80.728 533.375 89.181 542 99 c 0
 583 49 l 0
 548.389 13.354 500.533 -9.124 451 -13 c 0
 398.095 -17.14 343.823 0.095 303 34 c 0
 289.853 21.982 275.004 11.82 259 4 c 0
 237.841 -6.339 214.545 -12.547 191 -13 c 0
 150.446 -13.78 110.329 4.002 82.2546 33.277 c 0
 54.1806 62.553 37.8529 101.417 29 141 c 0
 19.5569 183.222 17.1616 226.735 17 270 c 0
 16.8313 315.16 19.48 360.911 33 404 c 0
315 322 m 0
 509 322 l 0
 509 332 l 0
 509 351.769 509.227 371.654 506.066 391.168 c 0
 502.905 410.683 495.775 429.913 483 445 c 0
 468.503 462.12 447.249 473.135 425 476 c 0
 411.917 477.685 398.464 476.673 385.856 472.794 c 0
 373.248 468.916 361.55 462.099 352 453 c 0
 342.384 443.837 335.012 432.466 329.746 420.272 c 0
 324.48 408.078 321.205 395.098 319 382 c 0
 315.668 362.206 314.584 342.068 315 322 c 0
193 470 m 0
 172.03 469.031 152.152 458.852 136.862 444.469 c 0
 121.573 430.085 110.513 411.601 103 392 c 0
 88.828 355.026 86.4676 314.593 87 275 c 0
 87.5376 235.02 90.1889 194.761 100 156 c 0
 105.926 132.589 115.202 109.555 130.79 91.111 c 0
 138.584 81.889 147.93 73.923 158.523 68.13 c 0
 169.117 62.336 180.949 58.759 193 58 c 0
 209.559 56.957 226.808 60.938 240 71 c 0
 246.824 76.205 252.34 83.308 254.846 91.517 c 0
 256.099 95.621 256.602 99.937 256.506 104.227 c 0
 256.41 108.517 255.711 112.768 255 117 c 0
 246.847 165.562 242.496 214.761 242 264 c 0
 241.529 310.804 244.54 357.642 251 404 c 0
 252.146 412.227 253.091 420.617 251.627 428.794 c 0
 250.163 436.97 246.43 444.714 241 451 c 0
 235.18 457.737 227.542 462.823 219.219 465.985 c 0
 210.895 469.146 201.894 470.411 193 470 c 0
EndSplineSet
EndChar
StartChar: acute.cap
Encoding: 278 -1 194
Width: 600
Flags: HMW
TeX: 78 0 0 0
Fore
387 779 m 0
 433 698 l 0
 237 627 l 0
 210 675 l 0
 387 779 l 0
EndSplineSet
EndChar
StartChar: ordfeminine
Encoding: 170 170 196
Width: 600
Flags: HMW
TeX: 111 0 0 0
Fore
152 656 m 0
 169.023 675.563 190.391 691.271 214 702 c 0
 239.695 713.677 267.807 719.665 296 721 c 0
 318.075 722.045 340.389 720.245 361.691 714.361 c 0
 382.994 708.477 403.267 698.23 419.571 683.311 c 0
 435.875 668.393 447.8 648.861 454.112 627.682 c 0
 460.425 606.503 461 584.1 461 562 c 0
 461 309 l 0
 388 309 l 0
 388 348 l 0
 355.042 316.909 310.308 298.169 265 298 c 0
 230.919 297.873 196.369 308.621 170.277 330.548 c 0
 144.186 352.476 127.675 385.92 128 420 c 0
 128.298 451.204 142.582 481.639 165.102 503.241 c 0
 187.621 524.844 217.44 537.688 248 544 c 0
 287.962 552.254 329.194 551 370 551 c 0
 387 551 l 0
 387 565 l 0
 387 577.531 386.803 590.195 383.737 602.344 c 0
 380.671 614.494 374.696 625.978 366 635 c 0
 357.416 643.906 346.391 650.297 334.616 654.084 c 0
 322.84 657.872 310.368 659.212 298 659 c 0
 274.746 658.601 251.432 653.111 231 642 c 0
 215.723 633.693 202.247 622.049 192 608 c 0
 152 656 l 0
390 491 m 0
 371 491 l 0
 340.64 491 310.117 492.832 280 489 c 0
 262.108 486.723 244.138 481.722 229.513 471.167 c 0
 222.2 465.889 215.826 459.253 211.174 451.527 c 0
 206.522 443.801 203.633 434.996 203 426 c 0
 202.308 416.164 204.337 406.164 208.724 397.333 c 0
 213.111 388.502 219.802 380.875 227.786 375.089 c 0
 243.754 363.516 264.335 359.513 284 361 c 0
 312.761 363.176 340.289 376.011 362 395 c 0
 372.576 404.25 381.287 415.885 385.564 429.268 c 0
 389.841 442.652 390 456.95 390 471 c 0
 390 491 l 0
98 239 m 0
 503 239 l 0
 503 176 l 0
 98 176 l 0
 98 239 l 0
EndSplineSet
EndChar
StartChar: ordmasculine
Encoding: 186 186 197
Width: 600
Flags: HMW
TeX: 111 0 0 0
Fore
300 721 m 0
 329.716 721.35 359.469 712.936 384.635 697.128 c 0
 409.801 681.321 430.163 658.3 444 632 c 0
 464.181 593.642 471.053 549.331 470 506 c 0
 468.998 464.802 460.762 423.163 441 387 c 0
 426.922 361.238 406.768 338.664 382.081 322.775 c 0
 357.394 306.887 328.347 297.807 299 297 c 0
 273.577 296.301 248.016 301.769 225.069 312.736 c 0
 202.122 323.702 181.874 340.129 166 360 c 0
 132.53 401.897 119.183 457.406 121 511 c 0
 122.706 561.301 137.42 612.026 168 652 c 0
 183.617 672.415 203.385 689.745 226.067 701.836 c 0
 248.749 713.927 274.299 720.697 300 721 c 0
296 656 m 0
 280.01 655.959 264.132 651.154 250.534 642.741 c 0
 236.936 634.329 225.633 622.459 217 609 c 0
 198.168 579.639 191.34 543.88 191 509 c 0
 190.652 473.267 197.457 436.239 218 407 c 0
 227.259 393.821 239.344 382.532 253.518 374.883 c 0
 267.692 367.234 283.908 363.334 300 364 c 0
 316.236 364.672 332.204 369.985 345.816 378.86 c 0
 359.429 387.735 370.655 400.056 379 414 c 0
 395.385 441.381 400.978 474.091 401 506 c 0
 401.021 536.514 396.221 567.499 383 595 c 0
 374.895 611.86 363.314 627.258 348.272 638.38 c 0
 333.231 649.503 314.707 656.047 296 656 c 0
98 239 m 0
 503 239 l 0
 503 176 l 0
 98 176 l 0
 98 239 l 0
EndSplineSet
EndChar
StartChar: uni02C9
Encoding: 263 713 198
Width: 600
Flags: HMW
TeX: 78 0 0 0
Fore
153 720 m 0
 447 720 l 0
 447 655 l 0
 153 655 l 0
 153 720 l 0
EndSplineSet
EndChar
StartChar: cedilla
Encoding: 269 184 201
Width: 600
Flags: HMW
TeX: 78 0 0 0
Fore
313 0 m 0
 363 0 l 0
 357 -55 l 0
 376 -56 l 0
 385.208 -56.485 394.455 -57.043 403.463 -59.011 c 0
 412.471 -60.979 421.224 -64.368 428.866 -69.528 c 0
 436.507 -74.688 442.979 -81.596 447.496 -89.635 c 0
 452.013 -97.673 454.561 -106.79 455 -116 c 0
 455.757 -131.859 450.215 -147.714 440.794 -160.494 c 0
 431.373 -173.274 418.298 -183.098 404 -190 c 0
 382.943 -200.16 359.373 -204.35 336 -205 c 0
 307.199 -205.8 278.267 -201.31 251 -192 c 0
 230.049 -184.849 210.108 -174.734 192 -162 c 0
 221 -114 l 0
 236.289 -126.33 253.598 -136.134 272 -143 c 0
 293.064 -150.86 315.519 -155.265 338 -155 c 0
 349.583 -154.864 361.426 -153.73 372 -149 c 0
 376.476 -146.998 380.679 -144.225 383.821 -140.461 c 0
 386.964 -136.697 388.934 -131.903 389 -127 c 0
 389.054 -122.937 387.817 -118.892 385.645 -115.457 c 0
 383.474 -112.022 380.421 -109.193 377 -107 c 0
 370.777 -103.011 363.454 -101.035 356.132 -100.028 c 0
 348.809 -99.022 341.391 -99 334 -99 c 0
 300 -99 l 0
 313 0 l 0
EndSplineSet
EndChar
StartChar: uni00B3
Encoding: 179 179 204
Width: 600
Flags: HMW
TeX: 117 0 0 0
Fore
302 739 m 0
 336.182 740.146 370.952 732.054 400 714 c 0
 416.274 703.885 430.681 690.6 441.331 674.671 c 0
 451.982 658.742 458.763 640.122 460 621 c 0
 461.354 600.064 455.897 578.673 444.281 561.203 c 0
 432.665 543.733 414.991 530.365 395 524 c 0
 412.521 520.903 429.227 513.265 443 502 c 0
 465.777 483.37 479.9 454.426 480 425 c 0
 480.078 401.924 471.829 379.164 458.298 360.472 c 0
 444.767 341.78 426.301 326.972 406 316 c 0
 375.767 299.66 341.365 291.331 307 291 c 0
 280.105 290.741 253.172 295.523 228 305 c 0
 194.259 317.704 163.745 338.87 140 366 c 0
 194 426 l 0
 196.684 423.149 198.672 419.684 200 416 c 0
 201.548 411.706 202.261 407.137 203.951 402.898 c 0
 204.796 400.778 205.894 398.755 207.271 396.934 c 0
 208.647 395.114 210.297 393.519 212 392 c 0
 238.102 368.727 273.033 355.519 308 356 c 0
 329.995 356.303 352.12 361.712 371 373 c 0
 380.329 378.578 388.826 385.674 395.412 394.321 c 0
 401.999 402.967 406.598 413.221 408 424 c 0
 409.619 436.444 406.762 449.428 400 460 c 0
 394.495 468.607 386.588 475.544 377.699 480.579 c 0
 368.809 485.613 358.987 488.845 349 491 c 0
 332.619 494.534 315.752 495.431 299 495 c 0
 289.975 494.768 280.961 494.096 272 493 c 0
 272 551 l 0
 281.967 550.047 291.992 549.698 302 550 c 0
 318.278 550.491 334.672 552.499 350 558 c 0
 358.141 560.921 365.956 564.929 372.63 570.43 c 0
 379.305 575.931 384.761 582.98 388 591 c 0
 391.305 599.184 392.256 608.263 391 617 c 0
 389.604 626.714 385.572 635.976 379.82 643.927 c 0
 374.067 651.878 366.616 658.547 358.282 663.728 c 0
 341.613 674.091 321.621 678.49 302 678 c 0
 281.705 677.493 261.645 671.872 243.652 662.472 c 0
 225.659 653.071 209.683 639.851 197 624 c 0
 155 667 l 0
 191.279 709.881 245.863 737.118 302 739 c 0
EndSplineSet
EndChar
StartChar: divide
Encoding: 247 247 205
Width: 600
Flags: HMW
TeX: 100 0 0 0
Fore
92 403 m 0
 509 403 l 0
 509 326 l 0
 92 326 l 0
 92 403 l 0
307 593 m 0
 320.445 592.737 333.704 587.016 343.119 577.415 c 0
 352.535 567.815 357.998 554.447 358 541 c 0
 358.002 527.547 352.539 514.171 343.119 504.566 c 0
 333.699 494.962 320.432 489.24 306.981 488.982 c 0
 293.53 488.723 280.053 493.93 270.271 503.166 c 0
 260.488 512.401 254.515 525.556 254 539 c 0
 253.46 553.11 258.965 567.351 268.856 577.429 c 0
 278.747 587.506 292.882 593.277 307 593 c 0
308 236 m 0
 321.108 235.486 333.944 229.797 343.128 220.429 c 0
 352.311 211.062 357.746 198.116 358 185 c 0
 358.27 171.041 352.639 157.063 342.768 147.191 c 0
 332.897 137.318 318.919 131.684 304.961 131.953 c 0
 291.002 132.221 277.252 138.388 267.767 148.633 c 0
 258.283 158.878 253.193 173.062 254 187 c 0
 254.778 200.442 261.014 213.489 270.985 222.537 c 0
 280.957 231.584 294.546 236.527 308 236 c 0
EndSplineSet
EndChar
StartChar: Oslash
Encoding: 216 216 206
Width: 600
Flags: HMW
TeX: 79 0 0 0
Fore
491 784 m 1
 553 751 l 1
 488.937 631.299 l 1
 500.293 615.589 510.008 598.647 518 581 c 0
 548.517 513.617 555.735 437.971 556 364 c 0
 556.265 289.917 549.777 214.266 521 146 c 0
 502.783 102.784 474.775 63.207 437.505 34.739 c 0
 400.235 6.271 353.896 -10.438 307 -11 c 0
 257.888 -11.588 209.107 5.56585 169.859 35.1085 c 1
 112 -73 l 1
 52 -42 l 1
 119.712 85.4036 l 1
 103.055 107.257 89.4781 131.578 79 157 c 0
 52.2921 221.798 43.9312 292.914 44 363 c 0
 44.0747 439.095 54.1566 516.846 88 585 c 0
 108.338 625.957 137.823 662.771 175.34 688.917 c 0
 212.857 715.063 258.271 730.051 304 730 c 0
 350 729.948 395.696 714.623 433.014 687.728 c 2
 437.906 684.102 l 1
 491 784 l 1
302 654 m 0
 266.683 654.443 231.874 640.112 205.334 616.808 c 0
 178.793 593.503 160.217 562.14 148 529 c 0
 128.903 477.2 123.531 421.206 124 366 c 0
 124.526 304.034 131.937 241.105 156 184 c 0
 158.312 178.514 160.802 173.087 163.478 167.751 c 1
 399.751 612.31 l 1
 394.879 616.808 l 2
 369.382 639.408 336.068 653.573 302 654 c 0
443.904 547.155 m 1
 208.332 106.994 l 1
 212.4 103.418 l 2
 237.601 81.978 269.916 68.4694 303 68 c 0
 335.675 67.5364 368.051 79.8595 393.323 100.576 c 0
 418.596 121.293 436.867 149.657 449 180 c 0
 472.016 237.561 475.717 301.013 475 363 c 0
 474.338 420.206 469.713 478.294 450 532 c 0
 448.126 537.105 446.096 542.164 443.904 547.155 c 1
EndSplineSet
EndChar
StartChar: multiply
Encoding: 215 215 207
Width: 600
Flags: HMW
TeX: 109 0 0 0
Fore
453 583 m 1
 508 532 l 1
 357.683 376.932 l 1
 505 221 l 1
 451 168 l 1
 304.762 322.338 l 1
 160 173 l 1
 108 224 l 1
 253.994 375.919 l 1
 108 530 l 1
 163 583 l 1
 306.764 430.829 l 1
 453 583 l 1
EndSplineSet
EndChar
StartChar: AE
Encoding: 198 198 208
Width: 600
Flags: HMW
TeX: 65 0 0 0
Fore
242 723 m 0
 571 723 l 0
 571 651 l 0
 370 651 l 0
 372 414 l 0
 541 414 l 0
 541 340 l 0
 373 340 l 0
 375 72 l 0
 568 72 l 0
 568 0 l 0
 302 0 l 0
 302 196 l 0
 151 196 l 0
 89 0 l 0
 15 0 l 0
 242 723 l 0
302 651 m 0
 289 651 l 0
 168 263 l 0
 302 263 l 0
 302 651 l 0
EndSplineSet
EndChar
StartChar: OE
Encoding: 188 338 209
Width: 600
Flags: HMW
TeX: 79 0 0 0
Fore
303 690 m 0
 303 723 l 0
 571 723 l 0
 571 651 l 0
 375 651 l 0
 375 414 l 0
 541 414 l 0
 541 340 l 0
 375 340 l 0
 375 72 l 0
 568 72 l 0
 568 0 l 0
 302 0 l 0
 302 36 l 0
 293.517 25.766 283.335 16.944 272 10 c 0
 253.998 -1.029 233.097 -7.216 212 -8 c 0
 187.385 -8.914 162.685 -2.48 141.11 9.406 c 0
 119.535 21.291 101.084 38.455 86.3954 58.228 c 0
 57.0175 97.774 42.5563 146.485 34 195 c 0
 22.9012 257.931 19.9132 322.107 21 386 c 0
 22.3178 463.475 28.9183 542.592 59 614 c 0
 71.9951 644.848 90.2593 673.991 115.551 695.919 c 0
 140.842 717.846 173.527 731.8 207 732 c 0
 230.84 732.142 254.662 725.439 275 713 c 0
 285.337 706.678 294.789 698.911 303 690 c 0
207 665 m 0
 197.593 664.894 188.259 662.523 179.787 658.433 c 0
 171.315 654.344 163.698 648.605 157 642 c 0
 143.56 628.746 133.648 612.257 126 595 c 0
 111.575 562.45 104.992 526.959 100.86 491.596 c 0
 96.7278 456.234 95.1887 420.603 95 385 c 0
 94.6823 325.06 97.3416 264.796 109 206 c 0
 113.392 183.848 119.231 161.906 127.921 141.062 c 0
 136.611 120.218 148.285 100.186 165 85 c 0
 179.005 72.277 197.084 63.427 216 63 c 0
 231.348 62.654 246.622 67.92 259 77 c 0
 270.723 85.599 279.945 97.288 287 110 c 0
 293.934 122.494 298.912 136.049 302 150 c 0
 302 562 l 0
 296.065 580.831 288.261 599.132 278 616 c 0
 271.813 626.171 264.651 635.821 256 644 c 0
 249.378 650.261 241.85 655.627 233.532 659.352 c 0
 225.215 663.078 216.113 665.103 207 665 c 0
EndSplineSet
EndChar
StartChar: currency
Encoding: 280 164 210
Width: 600
Flags: HMW
TeX: 78 0 0 0
Fore
510.1 231.1 m 29
 468.9 189.9 l 29
 378.9 279.9 l 29
 420.1 321.1 l 29
 510.1 231.1 l 29
88.9004 231.1 m 29
 178.9 321.1 l 29
 220.1 279.9 l 29
 130.1 189.9 l 29
 88.9004 231.1 l 29
510.1 569.9 m 29
 420.1 479.9 l 29
 378.9 521.1 l 29
 468.9 611.1 l 29
 510.1 569.9 l 29
88.9004 569.9 m 29
 130.1 611.1 l 29
 220.1 521.1 l 29
 178.9 479.9 l 29
 88.9004 569.9 l 29
300.7 516.248 m 4
 236.708 516.248 184.352 463.893 184.352 399.9 c 4
 184.352 335.907 236.708 283.553 300.7 283.553 c 4
 364.693 283.553 417.049 335.907 417.049 399.9 c 4
 417.049 463.893 364.693 516.248 300.7 516.248 c 4
300.7 579.9 m 4
 399.7 579.9 480.7 498.9 480.7 399.9 c 4
 480.7 300.9 399.7 219.9 300.7 219.9 c 4
 201.7 219.9 120.7 300.9 120.7 399.9 c 4
 120.7 498.9 201.7 579.9 300.7 579.9 c 4
EndSplineSet
EndChar
StartChar: brokenbar
Encoding: 281 166 211
Width: 600
Flags: HMW
TeX: 78 0 0 0
Fore
261 756 m 0
 339 756 l 0
 339 342 l 0
 261 342 l 0
 261 756 l 0
339 -175 m 0
 261 -175 l 0
 261 227 l 0
 339 227 l 0
 339 -175 l 0
EndSplineSet
EndChar
StartChar: ogonek
Encoding: 270 731 214
Width: 600
Flags: HMW
TeX: 78 0 0 0
Fore
422 -1 m 0
 499 -1 l 0
 460.872 -35.247 432.62 -66.2271 421.607 -78.682 c 0
 413.522 -87.8244 402.185 -101.438 402.185 -118.325 c 0
 402.185 -135.894 414.957 -150.781 435.933 -150.781 c 0
 443.153 -150.781 451.779 -149.089 463.983 -144.637 c 0
 481.808 -138.134 493.498 -130.218 501 -124 c 0
 501 -177 l 0
 478.501 -196.508 450.063 -204.002 420.815 -204.002 c 0
 360.391 -204.002 330.239 -171.648 330.239 -133.6 c 0
 330.239 -96.7579 361.627 -50.8058 422 -1 c 0
EndSplineSet
EndChar
StartChar: dotaccent
Encoding: 265 729 222
Width: 600
Flags: HMW
TeX: 78 0 0 0
Fore
305 760 m 4
 320.895 760.001 336.707 753.442 347.878 742.134 c 4
 359.049 730.827 365.403 714.89 365 699 c 4
 364.614 683.775 358.054 668.81 347.171 658.156 c 4
 336.289 647.502 321.227 641.253 306 641 c 4
 290.438 640.741 274.847 646.758 263.546 657.459 c 4
 252.244 668.159 245.392 683.441 245 699 c 4
 244.599 714.889 250.954 730.824 262.125 742.132 c 4
 273.295 753.44 289.105 759.999 305 760 c 4
EndSplineSet
EndChar
StartChar: breve
Encoding: 264 728 241
Width: 600
Flags: HMW
TeX: 0 0 0 0
Fore
169 749 m 0
 195.428 707.212 242.085 666.993 299.32 666.993 c 0
 347.638 666.993 397.467 696.856 437 748 c 0
 470 700 l 0
 430.784 646.838 369.515 606.983 299.498 606.983 c 0
 236.205 606.983 172.965 640.673 127 696 c 0
 169 749 l 0
EndSplineSet
EndChar
StartChar: eng
Encoding: 332 331 242
Width: 600
Flags: MW
TeX: 0 0 0 0
HStem: -203.685 77.503<269.001 357.508> 0 21G<89 174> 469.58 72.423<256.569 361.878>
VStem: 89 85<0 343.101 436 529> 428 82<-10.078 372.993>
Fore
89 0 m 0
 89 529 l 0
 174 529 l 0
 174 436 l 0
 212.871 495.002 278.12 542.003 349.957 542.003 c 0
 410.281 542.003 464.544 508.129 490.899 448.568 c 0
 509.729 406.014 510 362.334 510 321 c 0
 510 65 l 0
 510 16.919 509.539 -32.1813 489.487 -81.4966 c 0
 457.36 -160.511 387.101 -203.685 314.113 -203.685 c 0
 273.194 -203.685 233.402 -190.084 201 -165 c 0
 241 -87 l 0
 248.911 -88.73 247.814 -97.6079 250.927 -102.004 c 0
 253.743 -105.982 279.85 -126.182 316.013 -126.182 c 0
 347.932 -126.182 381.001 -110.476 402.714 -76.7224 c 0
 427.982 -37.4432 428 10.8898 428 52 c 0
 428 319 l 0
 428 356.393 427.762 401.823 399.11 436.061 c 0
 380.097 458.781 353.908 469.58 327.341 469.58 c 0
 271.362 469.58 220.49 422.787 200.308 395.893 c 0
 178.287 366.55 174 340.651 174 305 c 0
 174 0 l 0
 89 0 l 0
EndSplineSet
EndChar
StartChar: dcaron
Encoding: 312 271 245
Width: 600
Flags: HMWO
TeX: 0 0 0 0
Fore
368 452 m 4
 368 771 l 4
 447 771 l 4
 447 49 l 4
 447 32.9912 447.786 16.2109 452 0 c 4
 369 0 l 4
 364.758 12.8477 364 26.4229 364 39 c 4
 364 85 l 4
 331.672 29.4834 274.151 -12.0137 209.492 -12.0137 c 4
 97.8574 -12.0137 9.99902 105.708 9.99902 268.875 c 4
 9.99902 443.625 112.897 543.229 220.226 543.229 c 4
 283.503 543.229 340.554 507.905 368 452 c 4
224.355 475.159 m 4
 149.202 475.159 90.9316 392.789 90.9316 278.779 c 4
 90.9316 171.018 142.046 61.8809 227.748 61.8809 c 4
 273.537 61.8809 313.653 94.3154 335.296 129.689 c 4
 358.192 167.108 361.312 207.25 361.312 255.021 c 4
 361.312 325.707 359.835 363.117 343.567 397.269 c 4
 320.504 445.688 266.849 475.159 224.355 475.159 c 4
EndSplineSet
Refer: 56 8217 S 0.8 0 0 0.8 306.515 186.393 2
EndChar
StartChar: eogonek
Encoding: 313 281 246
Width: 600
Flags: HMW
TeX: 0 0 0 0
Fore
309.849 542.279 m 0
 425.432 542.279 524.638 463.139 524.638 289.764 c 0
 524.638 277.492 524.081 265.225 523 253 c 1
 147.298 253 l 1
 153.598 94.4857 256.131 55.4411 326.953 55.4411 c 0
 379.589 55.4411 429.496 76.3575 464 115 c 1
 510 70 l 1
 469 19 l 2
 429.072 -30.6685 396.601 -67.9568 396.601 -101.807 c 0
 396.601 -127.998 415.588 -147.006 441.833 -147.006 c 0
 447.913 -147.006 467.621 -146.296 501 -125 c 1
 500 -182 l 1
 478.223 -193.942 451.111 -202.754 423.732 -202.754 c 0
 365.924 -202.754 327.823 -164.029 327.823 -116.525 c 0
 327.823 -82.2885 349.347 -41.4463 392 -1 c 1
 366.185 -8.27677 339.549 -12.0058 312.827 -12.0058 c 0
 173.799 -12.0058 66.4395 87.3647 66.4395 261.323 c 0
 66.4395 451.743 183.571 542.279 309.849 542.279 c 0
150.008 317 m 1
 441 317 l 1
 441.689 322.947 442.035 328.93 442.035 334.917 c 0
 442.035 415.252 381.841 478.169 303.883 478.169 c 0
 247.072 478.169 166.495 441.85 150.008 317 c 1
EndSplineSet
EndChar
StartChar: zdot
Encoding: 326 380 258
Width: 600
Flags: MW
TeX: 0 0 0 0
HStem: -1 72<181 511.543> 457 72<92 396>
Fore
92 529 m 0
 505 530 l 0
 504 473 l 0
 181 71 l 0
 496 71 l 0
 511.543 71 514.162 78.2618 527.386 78.2618 c 0
 528.596 78.2618 529.804 78.1775 531 78 c 0
 531 -1 l 0
 68 -1 l 0
 69 56 l 0
 396 457 l 0
 92 457 l 0
 92 529 l 0
EndSplineSet
Refer: 222 729 S 1 0 0 1 0 0 2
EndChar
StartChar: dotlessj
Encoding: 331 567 259
Width: 600
Flags: MW
TeX: 0 0 0 0
HStem: -202.181 72.165<149.807 291.223> 461 69<156 353>
VStem: 353 84<-42.358 461>
Fore
156 530 m 0
 437 530 l 0
 437 37 l 0
 437 -8.68478 435.772 -52.1052 413.163 -96.3812 c 0
 377.277 -166.657 303.238 -202.181 227.699 -202.181 c 0
 162.017 -202.181 103.902 -175.027 66 -128 c 0
 120 -56 l 0
 127.204 -61.9473 125.358 -69.4816 130.11 -77.2483 c 0
 134.378 -84.2222 169.009 -130.016 233.016 -130.016 c 0
 277.791 -130.016 319.506 -106.298 339.459 -63.2398 c 0
 352.497 -35.1019 353 -7.27543 353 21 c 0
 353 461 l 0
 156 461 l 0
 156 530 l 0
EndSplineSet
EndChar
StartChar: kgreenlandic
Encoding: 330 312 260
Width: 600
Flags: MW
TeX: 0 0 0 0
HStem: -1 21G<87 171> 509 20G<87 182>
VStem: 87 84<-1 200 286 513.519>
Fore
87 529 m 0
 182 529 l 0
 182.131 528.206 182.196 527.403 182.196 526.598 c 0
 182.196 519.678 177.642 515.346 174.831 511.514 c 0
 171.215 506.587 171 503.254 171 499 c 0
 171 286 l 0
 436 532 l 0
 456.53 526.949 477.704 526 498 526 c 0
 528 526 l 0
 305 316 l 0
 565 -1 l 0
 562.299 -0.982364 559.597 -0.973546 556.896 -0.973546 c 0
 501.401 -0.973546 457 -5 457 -5 c 0
 241 265 l 0
 171 200 l 0
 171 -1 l 0
 87 -1 l 0
 87 529 l 0
EndSplineSet
EndChar
StartChar: uparrow
Encoding: 338 8593 266
Width: 600
Flags: HMW
TeX: 0 0 0 0
Fore
78 468 m 1
 295 742 l 1
 320 742 l 1
 521 466 l 1
 463 427 l 1
 340 593.819 l 1
 340 -39 l 1
 263 -39 l 1
 263 594.4 l 1
 128 427 l 1
 78 468 l 1
EndSplineSet
EndChar
StartChar: visiblespace
Encoding: 340 9251 268
Width: 600
Flags: HMW
TeX: 0 0 0 0
Fore
66 81 m 0
 120 81 l 0
 120 -24 l 0
 478 -24 l 0
 478 81 l 0
 534 81 l 0
 534 -76 l 0
 66 -76 l 0
 66 81 l 0
EndSplineSet
EndChar
StartChar: r.serif
Encoding: 341 -1 269
Width: 600
Flags: HMW
TeX: 0 0 0 0
Fore
85 529 m 4
 244 529 l 4
 241 427 l 4
 273.808 493.49 340.052 541.496 416.28 541.496 c 4
 465.614 541.496 515.474 521.475 553 484 c 4
 514 404 l 4
 505.563 412.004 501.879 420.625 495.327 429.3 c 4
 481.446 447.681 452.813 469.759 411.236 469.759 c 4
 371.703 469.759 324.688 449.297 282.848 390.04 c 4
 241.434 331.385 241 295.589 241 267 c 4
 241 62 l 4
 352 62 l 4
 352 -1 l 4
 83 -1 l 4
 83 62 l 4
 158 62 l 4
 158 462 l 4
 85 462 l 4
 85 529 l 4
EndSplineSet
EndChar
StartChar: hungarumlaut.cap
Encoding: 343 -1 270
Width: 600
Flags: HMW
TeX: 0 0 0 0
Fore
486 939 m 0
 540 864 l 0
 371 747 l 0
 334 795 l 0
 486 939 l 0
280 939 m 0
 334 864 l 0
 165 747 l 0
 128 795 l 0
 280 939 l 0
EndSplineSet
EndChar
StartChar: uni2074
Encoding: 344 8308 271
Width: 600
Flags: HMW
TeX: 0 0 0 0
Fore
360 743 m 0
 405 743 l 0
 405 459 l 0
 478 459 l 0
 478 404 l 0
 405 404 l 0
 405 292 l 0
 339 292 l 0
 339 405 l 0
 128 405 l 0
 128 446 l 0
 360 743 l 0
340 630 m 0
 204 459 l 0
 340 459 l 0
 340 630 l 0
EndSplineSet
EndChar
StartChar: fraction
Encoding: 345 8260 274
Width: 600
Flags: HMW
TeX: 0 0 0 0
Fore
98 -19 m 29
 461 770 l 29
 516 739 l 29
 152 -49 l 29
 98 -19 l 29
EndSplineSet
EndChar
StartChar: lslash
Encoding: 327 322 275
Width: 600
Flags: HW
TeX: 0 0 0 0
Fore
108 770 m 1
 342 770 l 1
 342 428.9 l 1
 417 455 l 2
 429 459 437 464 448 472 c 1
 448 387 l 1
 342 351.164 l 1
 342 67 l 1
 498 67 l 1
 498 0 l 1
 101 0 l 1
 101 67 l 1
 258 67 l 1
 258 322.765 l 1
 167 292 l 1
 167 368 l 1
 258 399.668 l 1
 258 703 l 1
 108 703 l 1
 108 770 l 1
EndSplineSet
EndChar
StartChar: Lslash
Encoding: 286 321 276
Width: 600
Flags: HW
TeX: 0 0 0 0
Fore
95 722 m 1
 189 722 l 1
 189.172 720.866 189.256 719.721 189.256 718.572 c 0
 189.256 703.818 179 701.431 179 683 c 2
 179 380.515 l 1
 371 443 l 2
 381.223 446.327 390.329 449.186 401 454 c 1
 401 380 l 1
 179 308.815 l 1
 179 69 l 1
 527 69 l 1
 527 -1 l 1
 95 -1 l 1
 95 281.88 l 1
 33 262 l 1
 33 333 l 1
 95 353.178 l 1
 95 722 l 1
EndSplineSet
EndChar
StartChar: Eng
Encoding: 346 330 277
Width: 600
Flags: HW
TeX: 0 0 0 0
Fore
69 0 m 0
 69 722 l 0
 154 722 l 0
 154 628 l 0
 195.063 692.14 265.789 735.013 341.737 735.013 c 0
 413.041 735.013 477.286 696.601 508.242 629.025 c 0
 529.38 582.882 530 536.67 530 491 c 0
 530 491 l 0
 530 203 l 0
 530 162.878 529.279 123.251 510.426 83.1621 c 0
 481.76 22.2073 421.615 -12.2234 354.689 -12.2234 c 0
 319.213 -12.2234 284.072 -2.51385 253 16 c 0
 294 88 l 0
 300.652 84.108 301.561 78.1418 306.406 74.6071 c 0
 308.777 72.8775 330.155 60.3705 357.435 60.3705 c 0
 390.135 60.3705 419.596 78.287 435.091 111.214 c 0
 447.894 138.419 448 169.63 448 197 c 0
 448 489 l 0
 448 522.737 448.069 561.745 430.159 597.471 c 0
 409.568 638.545 370.917 662.054 327.377 662.054 c 0
 264.705 662.054 206.267 613.375 180.496 576.603 c 0
 158.142 544.705 154 516.425 154 478 c 0
 154 0 l 0
 69 0 l 0
EndSplineSet
EndChar
StartChar: dcroat
Encoding: 347 273 278
Width: 600
Flags: HW
TeX: 0 0 0 0
Fore
280.638 475.041 m 0
 219.729 475.041 134.873 433.439 134.873 282.731 c 0
 134.873 108.363 223.935 61.8091 283.87 61.8091 c 0
 339.081 61.8091 393.871 98.7178 414.26 162.214 c 0
 422.843 188.943 425.29 218.613 425.29 258.526 c 0
 425.29 317.62 422.953 347.168 416.391 371.787 c 0
 395.442 450.383 327.053 475.041 280.638 475.041 c 0
510.157 630 m 1
 511 49 l 2
 511.023 32.976 511.825 16.2095 516 0 c 1
 433 0 l 1
 428.758 12.8474 428 26.4226 428 39 c 2
 428 85 l 1
 394.754 25.5822 332.198 -11.7426 264.502 -11.7426 c 0
 162.172 -11.7426 53.9989 73.6686 53.9989 269.088 c 0
 53.9989 471.408 175.85 543.089 276.756 543.089 c 0
 349.905 543.089 406.551 506.411 432 452 c 1
 432 630 l 1
 344 630 l 1
 344 692 l 1
 432 692 l 1
 432 771 l 1
 521 771 l 1
 521 770.659 521 770.318 521 769.976 c 0
 521 755.765 510 754.597 510 738.23 c 2
 510 738 l 1
 510.067 692 l 1
 561 692 l 1
 561 630 l 1
 510.157 630 l 1
EndSplineSet
EndChar
StartChar: bullet
Encoding: 353 8226 287
Width: 600
Flags: HW
TeX: 0 0 0 0
Fore
405.001 343.496 m 0
 405.001 290.47 361.103 246.968 306.461 246.968 c 0
 251.887 246.968 207.967 290.437 207.967 343.507 c 0
 207.967 396.512 251.854 440.001 306.474 440.001 c 0
 361.085 440.001 405.001 396.528 405.001 343.496 c 0
EndSplineSet
EndChar
StartChar: florin
Encoding: 354 402 288
Width: 600
Flags: HW
TeX: 0 0 0 0
Fore
566 719 m 1
 528 642 l 1
 524.387 642.014 519.832 644.287 518.495 650.917 c 0
 517.585 655.43 518.381 658.903 515.477 665.038 c 0
 504.735 687.73 476.304 714.31 438.015 714.31 c 0
 408.828 714.31 375.637 697.84 356.674 655.963 c 0
 340.302 619.806 338.928 575.492 336 539 c 2
 328.378 444 l 1
 471 444 l 1
 471 378 l 1
 323.082 378 l 1
 295 28 l 2
 290.863 -23.5551 284.654 -73.9088 257.475 -120.242 c 0
 224.265 -176.855 172.982 -203.002 125.302 -203.002 c 0
 89.2414 -203.002 55.0861 -188.068 31 -162 c 1
 78 -88 l 1
 84.9954 -91.4507 87.1891 -97.9286 90.1488 -102.751 c 0
 96.5551 -113.189 111.389 -124.965 131.92 -124.965 c 0
 150.936 -124.965 174.229 -114.524 191.263 -83.2958 c 0
 210.753 -47.5643 214.363 -4.0862 217 31 c 2
 243.075 378 l 1
 103 378 l 1
 103 444 l 1
 248.035 444 l 1
 256 550 l 2
 259.285 593.711 263.037 638.828 284.817 682.438 c 0
 316.683 746.244 375.812 780 436.757 780 c 0
 486.409 780 533.918 757.602 566 719 c 1
EndSplineSet
EndChar
StartChar: dagger
Encoding: 355 8224 289
Width: 600
Flags: HW
TeX: 0 0 0 0
Fore
261 756 m 1
 339 756 l 1
 339 529 l 1
 531 529 l 1
 531 460 l 1
 339 460 l 1
 339 -175 l 1
 261 -175 l 1
 261 460 l 1
 67 460 l 1
 67 529 l 1
 261 529 l 1
 261 756 l 1
EndSplineSet
EndChar
StartChar: daggerdbl
Encoding: 356 8225 290
Width: 600
Flags: HWO
TeX: 0 0 0 0
Fore
261 756 m 1
 339 756 l 1
 339 529 l 1
 531 529 l 1
 531 460 l 1
 339 460 l 1
 339 140 l 1
 531 140 l 1
 531 71 l 1
 339 71 l 1
 339 -175 l 1
 261 -175 l 1
 261 71 l 1
 67 71 l 1
 67 140 l 1
 261 140 l 1
 261 460 l 1
 67 460 l 1
 67 529 l 1
 261 529 l 1
 261 756 l 1
EndSplineSet
EndChar
StartChar: trademark
Encoding: 357 8482 291
Width: 600
VWidth: 1157
Flags: HWO
TeX: 0 0 0 0
Fore
286.552 735.33 m 5
 286.552 689.01 l 5
 182.332 689.01 l 5
 182.332 370.56 l 5
 130.222 370.56 l 5
 130.222 689.01 l 5
 30.6338 689.01 l 5
 30.6338 735.33 l 5
 286.552 735.33 l 5
360.664 735.33 m 5
 444.04 567.42 l 5
 466.042 609.108 466.042 609.108 487.465 651.375 c 132
 508.888 693.642 508.888 693.642 530.89 735.33 c 5
 569.104 735.33 l 5
 569.104 370.56 l 5
 520.468 370.56 l 5
 520.468 619.53 l 5
 503.098 588.264 503.098 588.264 485.149 556.419 c 132
 467.2 524.574 467.2 524.574 450.988 494.466 c 5
 432.46 495.624 l 5
 368.77 619.53 l 5
 368.77 370.56 l 5
 320.134 370.56 l 5
 320.134 735.33 l 5
 360.664 735.33 l 5
EndSplineSet
EndChar
